<svg viewBox="0 0 40 41" style="width: 22px; height: 22px;">
    <path
        d="M19.1171 27.5525C19.0006 27.4368 18.9084 27.299 18.8457 27.1472C18.7831 26.9955 18.7513 26.8328 18.7522 26.6686V21.262L13.3432 21.317C13.1789 21.321 13.0155 21.2915 12.863 21.2302C12.7105 21.169 12.5721 21.0772 12.4562 20.9607C12.3386 20.8462 12.2449 20.7094 12.1807 20.5583C12.1164 20.4072 12.0829 20.2448 12.0822 20.0807C12.081 19.75 12.21 19.4321 12.4414 19.1958C12.6728 18.9596 12.9879 18.8239 13.3185 18.8182L18.7522 18.7629V13.3283C18.7588 13.0014 18.8932 12.6902 19.1267 12.4613C19.3601 12.2325 19.674 12.1043 20.001 12.1043C20.3279 12.1043 20.6418 12.2325 20.8753 12.4613C21.1088 12.6902 21.2432 13.0014 21.2497 13.3283L21.2489 18.7375L26.6602 18.6825C26.9916 18.679 27.3107 18.8073 27.5475 19.0392C27.7842 19.271 27.9192 19.5874 27.9227 19.9188C27.9261 20.2502 27.7978 20.5693 27.5659 20.8061C27.3341 21.0428 27.0177 21.1778 26.6863 21.1812L21.2485 21.2366L21.2476 26.6721C21.2454 27.0028 21.113 27.3193 20.8792 27.5531C20.6453 27.787 20.3288 27.9193 19.9981 27.9216C19.8341 27.9216 19.6718 27.8889 19.5205 27.8256C19.3693 27.7622 19.2321 27.6694 19.1171 27.5525Z"
        fill="#56566F"></path>
    <path class="Icon" fill-rule="evenodd" clip-rule="evenodd"
        d="M14.9981 37.917H24.9981C34.0481 37.917 37.9151 34.05 37.9151 25V15C37.9151 5.95001 34.0481 2.08301 24.9981 2.08301H14.9981C5.94805 2.08301 2.08105 5.95001 2.08105 15V25C2.08105 34.05 5.94805 37.917 14.9981 37.917ZM4.58105 15C4.58105 7.31601 7.31405 4.58301 14.9981 4.58301H24.9981C32.6811 4.58301 35.4151 7.31601 35.4151 15V25C35.4151 32.684 32.6821 35.417 24.9981 35.417H14.9981C7.31405 35.417 4.58105 32.684 4.58105 25V15Z"
        fill="#56566F"></path>
</svg>