<svg viewBox="0 0 40 41" style="width: 14px; height: 14px;">
    <path fill-rule="evenodd" clip-rule="evenodd"
        d="M19.2611 7.54425V3.37793C19.2611 3.04641 19.3928 2.72847 19.6272 2.49405C19.8616 2.25963 20.1796 2.12793 20.5111 2.12793C20.8426 2.12793 21.1606 2.25963 21.395 2.49405C21.6294 2.72847 21.7611 3.04641 21.7611 3.37793V7.54425H26.1762C29.3758 7.54425 30.9256 9.17705 30.9256 12.5106V14.2434C30.9266 17.577 29.3768 19.2098 26.1762 19.2098H21.7611V21.7095H29.5079C32.7075 21.7095 34.2573 23.3423 34.2573 26.6759V28.4086C34.2573 31.7422 32.7095 33.375 29.5099 33.375H21.7611V36.7093C21.7588 37.0401 21.6263 37.3566 21.3924 37.5905C21.1585 37.8245 20.8419 37.9569 20.5111 37.9593C20.1803 37.9569 19.8637 37.8245 19.6298 37.5905C19.3959 37.3566 19.2635 37.0401 19.2611 36.7093V33.375H11.5121C8.31055 33.375 6.76074 31.7422 6.76074 28.4086V26.6759C6.76074 23.3423 8.31055 21.7095 11.5101 21.7095H19.2611V19.2098H14.8436C11.644 19.2098 10.0942 17.577 10.0942 14.2434V12.5106C10.0942 9.16105 11.644 7.54425 14.8436 7.54425H19.2611ZM14.8436 10.0439C13.1609 10.0439 12.5939 10.3939 12.5939 12.5106V14.2434C12.5939 16.3601 13.1609 16.7101 14.8436 16.7101H26.1762C27.859 16.7101 28.4259 16.3601 28.4259 14.2434V12.5106C28.4259 10.3939 27.859 10.0439 26.1762 10.0439H14.8436ZM11.5101 24.2092C9.82736 24.2092 9.26043 24.5591 9.26043 26.6759V28.4086C9.26043 30.5254 9.82736 30.8753 11.5101 30.8753H29.5079C31.1907 30.8753 31.7576 30.5254 31.7576 28.4086V26.6759C31.7576 24.5591 31.1927 24.2092 29.5099 24.2092H11.5101Z"
        fill="#56566F"></path>
    <defs>
        <clipPath id="clip0_35181_2184">
            <rect width="40" height="40" fill="white" transform="translate(0.511719 0.0429688)"></rect>
        </clipPath>
    </defs>
</svg>