<svg viewBox="0 0 40 41" style="width: 20px; height: 20px;">
    <path
        d="M18.7589 31.1882C16.7005 30.0001 15.5627 27.6071 15.5627 24.4612V21.4953H5.49492C5.43606 21.5022 5.37681 21.5057 5.31754 21.5057C5.12207 21.5062 4.92846 21.468 4.74774 21.3935C4.56703 21.319 4.40276 21.2096 4.2644 21.0715C4.12604 20.9335 4.01632 20.7694 3.94145 20.5889C3.86658 20.4083 3.82807 20.2148 3.82813 20.0193C3.82813 19.196 4.49657 18.5089 5.3197 18.5089C5.36047 18.5089 5.40072 18.5106 5.44047 18.5138H15.5627V15.5251C15.5627 12.3792 16.7005 9.98618 18.7589 8.79814C20.8339 7.60985 23.4613 7.82744 26.1888 9.40055L33.9367 13.8686C36.6644 15.4414 38.1703 17.6169 38.1703 19.993C38.1703 22.3691 36.6643 24.5448 33.9367 26.1346L26.1888 30.6024C24.6327 31.5061 23.093 31.9579 21.6873 31.9579C20.6331 31.958 19.6459 31.707 18.7589 31.1882ZM20.3216 11.3789C19.1227 12.0661 18.4676 13.6164 18.4676 15.7262V24.2611C18.4676 26.3707 19.1227 27.9212 20.3216 28.6084C21.5205 29.2957 23.1826 29.0878 25.0207 28.0329L32.4208 23.7655C34.2585 22.7109 35.2656 21.3682 35.2656 19.9937C35.2656 18.6193 34.2584 17.2766 32.4208 16.2217L25.0207 11.9543C23.9019 11.2989 22.8472 10.9793 21.9198 10.9793C21.3613 10.971 20.8103 11.1088 20.3215 11.3789L20.3216 11.3789Z"
        fill="#56566F"></path>
    <defs>
        <clipPath id="clip0_35181_106">
            <rect width="40" height="40" fill="white" transform="translate(0.998047)"></rect>
        </clipPath>
    </defs>
</svg>