<svg viewBox="0 0 40 41" style="width: 18px; height: 18px;">
    <path
        d="M38.3103 20.0139C38.3116 19.8152 38.2735 19.6182 38.1981 19.4344C38.1227 19.2506 38.0115 19.0836 37.871 18.9431C37.7305 18.8026 37.5635 18.6915 37.3797 18.616C37.1959 18.5406 36.9989 18.5025 36.8002 18.5038H5.38167C4.98104 18.5038 4.59682 18.6629 4.31353 18.9462C4.03024 19.2295 3.87109 19.6137 3.87109 20.0144C3.87109 20.415 4.03024 20.7992 4.31353 21.0825C4.59682 21.3658 4.98104 21.5249 5.38167 21.5249H36.8002C37.2005 21.5236 37.584 21.364 37.8669 21.0808C38.1499 20.7977 38.3093 20.4141 38.3103 20.0139Z"
        fill="#56566F"></path>
    <path class="Icon"
        d="M4.11143 30.9394C4.11011 31.1381 4.14826 31.3351 4.22368 31.5189C4.2991 31.7027 4.41028 31.8697 4.55077 32.0102C4.69125 32.1507 4.85825 32.2618 5.04206 32.3373C5.22587 32.4127 5.42284 32.4508 5.62151 32.4495H36.5591C36.9596 32.4495 37.3437 32.2904 37.6268 32.0072C37.91 31.724 38.0691 31.3399 38.0691 30.9394C38.0691 30.5389 37.91 30.1548 37.6268 29.8716C37.3437 29.5884 36.9596 29.4293 36.5591 29.4293H5.62251C5.22313 29.4332 4.8412 29.5936 4.55869 29.8759C4.27618 30.1582 4.1156 30.54 4.11143 30.9394Z"
        fill="#56566F"></path>
    <path class="Icon"
        d="M4.22368 9.66777C4.14826 9.48396 4.11011 9.287 4.11143 9.08832C4.11275 8.68806 4.27242 8.30458 4.55554 8.02164C4.83867 7.73871 5.22225 7.5793 5.62251 7.57825H36.5591C36.9596 7.57825 37.3437 7.73734 37.6268 8.02054C37.91 8.30373 38.0691 8.68783 38.0691 9.08832C38.0691 9.48882 37.91 9.87291 37.6268 10.1561C37.3437 10.4393 36.9596 10.5984 36.5591 10.5984H5.62151C5.42284 10.5997 5.22587 10.5616 5.04206 10.4862C4.85825 10.4107 4.69125 10.2996 4.55077 10.1591C4.41028 10.0186 4.2991 9.85158 4.22368 9.66777Z"
        fill="#56566F"></path>
    <defs>
        <clipPath id="clip0_35181_426">
            <rect width="40" height="40" fill="white" transform="translate(0.99707 0.0137939)"></rect>
        </clipPath>
    </defs>
</svg>