<svg viewBox="0 0 40 41" style="width: 20px; height: 20px;">
    <path
        d="M15.5312 37.4229C6.81825 37.4229 3.09473 33.6989 3.09473 24.9849V15.3569C3.09473 6.64193 6.81825 2.91797 15.5312 2.91797H25.1621C33.8781 2.91797 37.5996 6.64193 37.5996 15.3569V24.9849C37.5996 33.6989 33.8771 37.4229 25.1621 37.4229H15.5312ZM5.50293 15.3569V24.9849C5.50293 32.3849 8.13525 35.0159 15.5312 35.0159H25.1621C32.5621 35.0159 35.1943 32.3829 35.1943 24.9849V15.3569C35.1943 7.95693 32.5611 5.32593 25.1621 5.32593H15.5312C8.13425 5.32993 5.50195 7.96284 5.50195 15.3608L5.50293 15.3569ZM29.2031 27.377C28.9804 27.1537 28.8532 26.8522 28.8496 26.5369V13.804C28.8532 13.4886 28.9804 13.1871 29.2031 12.9639C29.4288 12.7442 29.7291 12.6181 30.0439 12.6108C30.3591 12.6182 30.6596 12.7443 30.8857 12.9639C31.1078 13.1875 31.2336 13.4888 31.2373 13.804V26.5369C31.2336 26.852 31.1078 27.1534 30.8857 27.377C30.6619 27.6001 30.3599 27.7265 30.0439 27.7297C29.7284 27.728 29.4264 27.6029 29.2021 27.3809L29.2031 27.377ZM24.4307 27.377C24.2085 27.1534 24.0827 26.852 24.0791 26.5369V20.1709C24.0815 19.8555 24.2075 19.5537 24.4307 19.3308C24.5401 19.2184 24.6708 19.1293 24.8154 19.0686C24.9601 19.008 25.1156 18.9771 25.2725 18.9778C25.429 18.9772 25.5842 19.0082 25.7285 19.0688C25.8728 19.1295 26.0032 19.2186 26.1123 19.3308C26.2235 19.4407 26.3125 19.5714 26.373 19.7156C26.4336 19.8597 26.4652 20.0145 26.4658 20.1709V26.5369C26.4632 26.8524 26.3358 27.1543 26.1123 27.377C25.8869 27.5964 25.587 27.7222 25.2725 27.7297C24.9575 27.7238 24.6567 27.5993 24.4297 27.3809L24.4307 27.377ZM19.6602 27.377C19.4366 27.1543 19.3093 26.8524 19.3066 26.5369V13.804C19.3093 13.4884 19.4366 13.1866 19.6602 12.9639C19.8856 12.7445 20.1855 12.6183 20.5 12.6108C20.8151 12.6182 21.1156 12.7443 21.3418 12.9639C21.5639 13.1875 21.6897 13.4888 21.6934 13.804V26.5369C21.6897 26.852 21.5639 27.1534 21.3418 27.377C21.118 27.6001 20.816 27.7265 20.5 27.7297C20.1847 27.7284 19.8828 27.6032 19.6592 27.3809L19.6602 27.377ZM14.8867 27.377C14.6646 27.1534 14.5388 26.852 14.5352 26.5369V24.9429C14.5375 24.6275 14.6636 24.3256 14.8867 24.1028C14.9962 23.9905 15.1268 23.9015 15.2715 23.8408C15.4161 23.7802 15.5717 23.7491 15.7285 23.7498C15.8851 23.749 16.0402 23.7799 16.1846 23.8406C16.3289 23.9012 16.4593 23.9904 16.5684 24.1028C16.6798 24.2126 16.7684 24.3434 16.8291 24.4875C16.8899 24.6317 16.9221 24.7864 16.9229 24.9429V26.5369C16.9194 26.8524 16.7918 27.1541 16.5684 27.377C16.3429 27.5964 16.043 27.7222 15.7285 27.7297C15.4133 27.7236 15.1122 27.5991 14.8848 27.3809L14.8867 27.377ZM10.1152 27.377C9.89207 27.1541 9.76606 26.8522 9.76367 26.5369V13.804C9.76606 13.4886 9.89207 13.1867 10.1152 12.9639C10.3412 12.7446 10.6423 12.6185 10.957 12.6108C11.2718 12.6185 11.5719 12.7446 11.7979 12.9639C12.0202 13.1874 12.1464 13.4887 12.1504 13.804V26.5369C12.1464 26.8521 12.0202 27.1535 11.7979 27.377C11.5744 27.5999 11.2727 27.7264 10.957 27.7297C10.6412 27.728 10.3379 27.6028 10.1133 27.3809L10.1152 27.377ZM14.8867 21.0107C14.663 20.7882 14.5369 20.4864 14.5352 20.1709V13.8049C14.5388 13.4898 14.6646 13.1884 14.8867 12.9648C15.1129 12.7453 15.4134 12.6192 15.7285 12.6118C16.0431 12.6191 16.343 12.7453 16.5684 12.9648C16.7918 13.1877 16.9194 13.4894 16.9229 13.8049V20.1709C16.9221 20.3273 16.8899 20.4821 16.8291 20.6262C16.7684 20.7704 16.6798 20.9009 16.5684 21.0107C16.4594 21.1231 16.3289 21.2125 16.1846 21.2732C16.0402 21.3339 15.8851 21.3646 15.7285 21.3638C15.5716 21.3653 15.4165 21.3351 15.2715 21.2751C15.1265 21.2152 14.9948 21.1268 14.8848 21.0149L14.8867 21.0107ZM24.4316 16.2388C24.2079 16.0163 24.0818 15.7144 24.0801 15.3989V13.8049C24.0837 13.4898 24.2096 13.1884 24.4316 12.9648C24.6578 12.7453 24.9583 12.6192 25.2734 12.6118C25.5879 12.6194 25.8878 12.7455 26.1133 12.9648C26.3368 13.1875 26.4641 13.4894 26.4668 13.8049V15.3989C26.4662 15.5553 26.4346 15.7099 26.374 15.854C26.3134 15.9982 26.2245 16.1289 26.1133 16.2388C26.0042 16.351 25.8738 16.4403 25.7295 16.501C25.5852 16.5616 25.43 16.5924 25.2734 16.5918C25.1165 16.5932 24.9614 16.5628 24.8164 16.5027C24.6714 16.4425 24.5396 16.354 24.4297 16.2419L24.4316 16.2388Z"
        fill="#56566F"></path>
    <defs>
        <clipPath id="clip0_35181_5668">
            <rect width="39.998" height="39.998" fill="white"
                transform="translate(0.499023 0.175781)"></rect>
        </clipPath>
    </defs>
</svg>