<svg viewBox="0 0 41 41" style="width: 18px; height: 18px;">
    <path
        d="M33.3337 25.321L30.6877 13.966C30.2185 11.566 28.9965 9.37806 27.1992 7.71988C25.4018 6.06169 23.1226 5.01963 20.6927 4.74503V3.79403C20.7053 3.6292 20.6837 3.46355 20.6293 3.30746C20.5749 3.15137 20.4888 3.0082 20.3765 2.88694C20.2642 2.76567 20.128 2.66892 19.9765 2.60276C19.825 2.53659 19.6615 2.50244 19.4962 2.50244C19.3309 2.50244 19.1674 2.53659 19.0159 2.60276C18.8644 2.66892 18.7282 2.76567 18.6159 2.88694C18.5035 3.0082 18.4175 3.15137 18.363 3.30746C18.3086 3.46355 18.2871 3.6292 18.2997 3.79403V4.74603C15.876 5.01771 13.6018 6.0538 11.8063 7.70424C10.0107 9.35468 8.78714 11.5338 8.31268 13.926L5.66168 25.321C5.45828 26.1841 5.57636 27.0917 5.99382 27.8739C6.41128 28.6562 7.0995 29.2595 7.92968 29.571C9.74876 30.2393 11.6225 30.7482 13.5297 31.092C13.5297 31.172 13.5167 31.252 13.5167 31.332C13.5064 32.1242 13.6536 32.9105 13.9497 33.6453C14.2457 34.3801 14.6848 35.0488 15.2413 35.6126C15.7978 36.1763 16.4608 36.624 17.1917 36.9295C17.9227 37.235 18.707 37.3924 19.4992 37.3924C20.2914 37.3924 21.0757 37.235 21.8066 36.9295C22.5376 36.624 23.2005 36.1763 23.7571 35.6126C24.3136 35.0488 24.7526 34.3801 25.0487 33.6453C25.3447 32.9105 25.4919 32.1242 25.4817 31.332C25.4817 31.253 25.4627 31.173 25.4587 31.094C27.367 30.7498 29.2417 30.2402 31.0617 29.571C31.8926 29.2603 32.5817 28.6573 33 27.8749C33.4182 27.0926 33.5368 26.1846 33.3337 25.321ZM19.4957 34.967C18.5538 34.9593 17.6523 34.584 16.9833 33.9209C16.3143 33.2579 15.9308 32.3598 15.9147 31.418C17.1037 31.5532 18.2991 31.6247 19.4957 31.632C20.6923 31.6247 21.8877 31.5532 23.0767 31.418C23.0605 32.3598 22.6771 33.2579 22.0081 33.9209C21.3391 34.584 20.4375 34.9593 19.4957 34.967ZM30.2477 27.295C23.3085 29.8487 15.6869 29.8487 8.74768 27.295C8.47089 27.1909 8.2415 26.9895 8.10237 26.7285C7.96324 26.4676 7.92389 26.1649 7.99168 25.877L10.6507 14.442C11.0377 12.3748 12.1364 10.5084 13.7561 9.16692C15.3758 7.8254 17.4142 7.09348 19.5173 7.09823C21.6204 7.10298 23.6555 7.84411 25.2691 9.19294C26.8827 10.5418 27.973 12.4131 28.3507 14.482L31.0057 25.877C31.0735 26.1649 31.0341 26.4676 30.895 26.7285C30.7559 26.9895 30.5265 27.1909 30.2497 27.295H30.2477Z"
        fill="#56566F"></path>
    <defs>
        <clipPath id="clip0_35181_1291">
            <rect width="40" height="40" fill="white" transform="translate(0.0126953 0.0239258)"></rect>
        </clipPath>
    </defs>
</svg>