<svg viewBox="0 0 40 41" style="width: 20px; height: 20px;">
    <path
        d="M20.4886 15.9806H10.4898C10.1591 15.9783 9.84255 15.8459 9.60866 15.612C9.37478 15.3781 9.24235 15.0616 9.23999 14.7308C9.24235 14.4 9.37478 14.0835 9.60866 13.8496C9.84255 13.6157 10.1591 13.4833 10.4898 13.481H20.4886C20.8193 13.4833 21.1359 13.6157 21.3698 13.8496C21.6036 14.0835 21.7361 14.4 21.7384 14.7308C21.7361 15.0616 21.6036 15.3781 21.3698 15.612C21.1359 15.8459 20.8193 15.9783 20.4886 15.9806Z"
        fill="#56566F"></path>
    <path class="Icon"
        d="M11.7397 22.6468H19.2388C19.5695 22.6444 19.8861 22.512 20.1199 22.2781C20.3538 22.0442 20.4863 21.7277 20.4886 21.3969C20.4863 21.0662 20.3538 20.7497 20.1199 20.5158C19.8861 20.2819 19.5695 20.1495 19.2388 20.1471H11.7397C11.409 20.1495 11.0924 20.2819 10.8585 20.5158C10.6247 20.7497 10.4922 21.0662 10.4899 21.3969C10.4922 21.7277 10.6247 22.0442 10.8585 22.2781C11.0924 22.512 11.409 22.6444 11.7397 22.6468Z"
        fill="#56566F"></path>
    <path class="Icon" fill-rule="evenodd" clip-rule="evenodd"
        d="M14.3669 38.3903C14.7222 38.5393 15.104 38.6147 15.4892 38.6118C16.2685 38.6133 17.017 38.308 17.573 37.7619L20.3726 34.9623C20.4423 34.8931 20.5348 34.8516 20.6329 34.8455C20.7309 34.8394 20.8278 34.8692 20.9055 34.9293L23.7552 37.062C24.1881 37.3885 24.7035 37.5876 25.2434 37.6371C25.7833 37.6865 26.3263 37.5842 26.8113 37.3418C27.2963 37.0994 27.704 36.7264 27.9885 36.2648C28.2729 35.8033 28.423 35.2715 28.4216 34.7293V19.3142H32.8531C33.5925 19.3578 34.3327 19.244 35.0248 18.9803C35.717 18.7166 36.3453 18.309 36.8683 17.7845C37.3913 17.26 37.797 16.6305 38.0587 15.9376C38.3204 15.2447 38.4321 14.5042 38.3864 13.7649V9.73242C38.3883 7.64103 37.5617 5.63404 36.0876 4.15053C34.6134 2.66702 32.6117 1.82777 30.5204 1.81641H10.5068C5.47347 1.81641 2.59083 4.69905 2.59083 9.73242V34.7293C2.58948 35.2715 2.73949 35.8033 3.02398 36.2648C3.30847 36.7264 3.71614 37.0994 4.20111 37.3418C4.68608 37.5842 5.22909 37.6865 5.76902 37.6371C6.30895 37.5876 6.82436 37.3885 7.25725 37.062L10.1069 34.9293C10.1863 34.8655 10.2866 34.8335 10.3882 34.8396C10.4899 34.8457 10.5856 34.8894 10.6568 34.9623L13.4225 37.7449C13.6904 38.0217 14.0117 38.2413 14.3669 38.3903ZM30.5026 4.3161L30.5204 4.31609C31.9519 4.32218 33.3225 4.89587 34.3315 5.91128C35.3406 6.92669 35.9056 8.30091 35.9027 9.73242V13.7649C35.9448 14.1758 35.8948 14.5908 35.7565 14.98C35.6181 15.3691 35.3948 15.7225 35.1027 16.0146C34.8107 16.3066 34.4573 16.5299 34.0681 16.6683C33.679 16.8067 33.2639 16.8566 32.8531 16.8145H28.4216V6.39883C28.4219 5.84654 28.6414 5.31694 29.0319 4.92641C29.3082 4.65008 29.6542 4.45937 30.0286 4.37137C30.1827 4.33527 30.3417 4.31645 30.5026 4.3161ZM11.4699 32.567C11.1119 32.418 10.7276 32.3431 10.3399 32.3466C9.7092 32.3484 9.0958 32.5527 8.59008 32.9295L5.73944 35.0623C5.68051 35.1129 5.60778 35.1447 5.53062 35.1536C5.45346 35.1625 5.3754 35.1481 5.30649 35.1122C5.2356 35.0767 5.17615 35.022 5.13495 34.9543C5.09374 34.8865 5.07245 34.8086 5.07352 34.7293V9.73242C5.07352 6.03288 6.7903 4.31609 10.4898 4.31609H26.4039C26.0747 4.96099 25.9034 5.67481 25.9039 6.39883V34.7283C25.9028 34.805 25.8804 34.8799 25.8393 34.9447C25.7982 35.0095 25.7399 35.0616 25.6709 35.0952C25.604 35.1345 25.5267 35.1524 25.4493 35.1465C25.3719 35.1406 25.2982 35.1112 25.238 35.0623L22.4054 32.9465C21.8472 32.518 21.1522 32.307 20.45 32.353C19.7478 32.399 19.0863 32.6988 18.5888 33.1965L15.7892 35.9961C15.7073 36.0712 15.6003 36.1128 15.4892 36.1128C15.3782 36.1128 15.2711 36.0712 15.1893 35.9961L12.4226 33.2135C12.1519 32.9359 11.8278 32.716 11.4699 32.567Z"
        fill="#56566F"></path>
    <defs>
        <clipPath id="clip0_35181_6140">
            <rect width="40" height="40" fill="white" transform="translate(0.490234 0.214844)"></rect>
        </clipPath>
    </defs>
</svg>