<svg viewBox="0 0 41 41" style="width: 20px; height: 20px;">
    <path fill-rule="evenodd" clip-rule="evenodd"
        d="M27.6735 31.251C28.1125 31.5443 28.6285 31.7009 29.1565 31.701C29.5885 31.6971 30.0146 31.6009 30.4065 31.419C30.8352 31.1898 31.1936 30.8484 31.4433 30.4313C31.6931 30.0143 31.8248 29.5372 31.8245 29.051V27.201C33.6196 27.016 35.2994 26.229 36.5905 24.968C37.3597 24.1714 37.9611 23.2284 38.3591 22.195C38.7572 21.1616 38.9436 20.0588 38.9075 18.952V10.452C38.9576 9.34437 38.7765 8.23842 38.3754 7.20469C37.9744 6.17097 37.3624 5.23216 36.5784 4.44813C35.7943 3.6641 34.8555 3.05206 33.8218 2.65104C32.7881 2.25003 31.6821 2.06883 30.5745 2.11902H16.4075C15.2998 2.06883 14.1939 2.25003 13.1601 2.65104C12.1264 3.05206 11.1876 3.6641 10.4036 4.44813C9.61954 5.23216 9.00751 6.17097 8.60649 7.20469C8.20547 8.23842 8.02428 9.34437 8.07446 10.452V13.979C6.79339 14.2965 5.62769 14.9939 4.73797 15.9924C3.59172 17.2788 2.99462 18.9629 3.07447 20.684V27.468C3.04625 28.3883 3.20276 29.3049 3.53477 30.1637C3.86677 31.0225 4.36754 31.806 5.00747 32.468C6.02817 33.4533 7.33526 34.0892 8.74047 34.284V35.55C8.73675 35.8627 8.79532 36.1729 8.91275 36.4626C9.03019 36.7524 9.20414 37.0159 9.42447 37.2377C9.6448 37.4595 9.90709 37.6352 10.196 37.7546C10.485 37.874 10.7948 37.9346 11.1075 37.933C11.5842 37.9363 12.0502 37.7909 12.4405 37.517L17.1555 34.384H21.3055C22.8089 34.4709 24.2955 34.0308 25.5094 33.1395C26.2742 32.5779 26.9005 31.8594 27.3511 31.0393L27.6735 31.251ZM9.2323 16.3138C9.2958 16.3198 9.36001 16.3213 9.42446 16.318C9.43469 16.3171 9.44491 16.3162 9.45513 16.3153C9.62885 16.3002 9.80258 16.285 9.99146 16.285H21.3085C21.9003 16.2382 22.4952 16.3203 23.0523 16.5257C23.6093 16.731 24.1151 17.0548 24.5349 17.4746C24.9547 17.8943 25.2785 18.4002 25.4838 18.9572C25.6237 19.3367 25.7064 19.7337 25.7301 20.1353C25.7401 20.3177 25.738 20.501 25.7235 20.684V27.467C25.7256 27.9342 25.664 28.3995 25.5405 28.85C25.3143 29.7783 24.7629 30.5948 23.9862 31.1512C23.2096 31.7077 22.2592 31.9674 21.3075 31.883H16.7745C16.525 31.8859 16.2818 31.9613 16.0745 32.1L11.2405 35.317V33.134C11.2381 32.8032 11.1057 32.4867 10.8718 32.2528C10.6378 32.0188 10.3213 31.8864 9.99047 31.884C9.40276 31.9099 8.81578 31.8186 8.26366 31.6155C7.71155 31.4124 7.20534 31.1016 6.77447 30.701C6.36918 30.2693 6.05424 29.7608 5.84817 29.2056C5.6421 28.6505 5.54905 28.0597 5.57447 27.468V20.684C5.5274 20.141 5.59074 19.5941 5.76067 19.0763C5.9306 18.5584 6.20361 18.0803 6.56325 17.6708C6.92288 17.2613 7.3617 16.9288 7.85326 16.6934C8.28715 16.4856 8.75421 16.3572 9.2323 16.3138ZM21.6082 13.7613C22.4317 13.7596 23.2492 13.9114 24.0184 14.2099C24.8763 14.5428 25.6554 15.0507 26.3061 15.7014C26.9568 16.3521 27.4647 17.1312 27.7976 17.9891C28.1305 18.8469 28.281 19.7648 28.2395 20.684V27.467C28.2235 27.851 28.2065 28.219 28.1565 28.568L29.2395 29.185C29.269 29.1726 29.2943 29.1518 29.3121 29.1251C29.3299 29.0984 29.3394 29.0671 29.3395 29.035V26.019C29.3418 25.6882 29.4743 25.3717 29.7082 25.1377C29.9421 24.9038 30.2587 24.7714 30.5895 24.769C31.3678 24.8034 32.1451 24.6809 32.8752 24.409C33.6053 24.1371 34.2733 23.7212 34.8395 23.186C35.3765 22.6211 35.7936 21.9534 36.0657 21.2229C36.3378 20.4925 36.4591 19.7146 36.4225 18.936V10.436C36.4779 9.65577 36.365 8.87274 36.0914 8.13992C35.8179 7.4071 35.3901 6.74161 34.837 6.1885C34.2839 5.6354 33.6184 5.20759 32.8856 4.93405C32.1527 4.66051 31.3697 4.54762 30.5895 4.60302H16.4245C15.6443 4.54763 14.8614 4.6605 14.1286 4.93399C13.3959 5.20747 12.7304 5.63518 12.1773 6.18818C11.6243 6.74117 11.1964 7.40653 10.9228 8.13923C10.6492 8.87193 10.5362 9.65485 10.5915 10.435V13.768H21.3068C21.4073 13.7635 21.5078 13.7612 21.6082 13.7613Z"
        fill="#56566F"></path>
    <defs>
        <clipPath id="clip0_35181_1405">
            <rect width="40.005" height="40.005" fill="white"
                transform="translate(0.987305 0.0239258)"></rect>
        </clipPath>
    </defs>
</svg>