<svg viewBox="0 0 40 41" style="width: 22px; height: 22px;">
    <path
        d="M16.2826 25.9671C16.1184 25.9677 15.9557 25.9355 15.8041 25.8725C15.6525 25.8095 15.515 25.7169 15.3996 25.6001C15.1673 25.3647 15.0371 25.0473 15.0371 24.7166C15.0371 24.3859 15.1673 24.0685 15.3996 23.8331L19.2334 20.0013L15.399 16.167C15.1725 15.9312 15.0475 15.616 15.0507 15.2891C15.054 14.9622 15.1853 14.6496 15.4165 14.4184C15.6477 14.1873 15.9603 14.0559 16.2872 14.0527C16.6141 14.0494 16.9293 14.1745 17.165 14.401L20.9992 18.2364L24.8366 14.4011C25.0709 14.1668 25.3887 14.0352 25.7201 14.0352C26.0514 14.0352 26.3693 14.1668 26.6036 14.4011C26.8379 14.6354 26.9695 14.9532 26.9695 15.2846C26.9695 15.616 26.8379 15.9338 26.6036 16.1681L22.766 20.0037L26.599 23.838C26.8313 24.0734 26.9615 24.3908 26.9615 24.7215C26.9615 25.0522 26.8313 25.3696 26.599 25.605C26.483 25.7209 26.3452 25.8127 26.1934 25.8748C26.0416 25.937 25.879 25.9683 25.715 25.967C25.5508 25.9675 25.3882 25.9353 25.2366 25.8723C25.085 25.8093 24.9474 25.7167 24.832 25.6L21.0004 21.7683L17.1656 25.6011C17.051 25.7189 16.9136 25.8122 16.7618 25.8751C16.61 25.938 16.4469 25.9693 16.2826 25.9671Z"
        fill="#56566F"></path>
    <path class="Icon" fill-rule="evenodd" clip-rule="evenodd"
        d="M15.9971 37.917H25.9971C35.0471 37.917 38.9141 34.05 38.9141 25V15C38.9141 5.95001 35.0471 2.08301 25.9971 2.08301H15.9971C6.94708 2.08301 3.08008 5.95001 3.08008 15V25C3.08008 34.05 6.94708 37.917 15.9971 37.917ZM5.58008 15C5.58008 7.31601 8.31308 4.58301 15.9971 4.58301H25.9971C33.6801 4.58301 36.4141 7.31601 36.4141 15V25C36.4141 32.684 33.6811 35.417 25.9971 35.417H15.9971C8.31308 35.417 5.58008 32.684 5.58008 25V15Z"
        fill="#56566F"></path>
</svg>