<svg viewBox="0 0 41 41" style="width: 20px; height: 20px;">
    <path
        d="M31.5189 33.3087C31.2031 33.3087 30.8991 33.189 30.6679 32.9737C30.5537 32.8631 30.4625 32.7309 30.3998 32.5848C30.337 32.4387 30.3039 32.2816 30.3024 32.1226C30.3009 31.9636 30.3311 31.8058 30.3911 31.6586C30.4511 31.5113 30.5398 31.3774 30.6519 31.2647C32.3655 29.5182 33.6231 27.3769 34.314 25.0296C35.0048 22.6824 35.1077 20.2013 34.6135 17.8049C34.1193 15.4085 33.0432 13.1705 31.4801 11.2881C29.9169 9.40573 27.9147 7.93674 25.65 7.01064C23.3852 6.08453 20.9274 5.72975 18.4932 5.97755C16.059 6.22536 13.7231 7.06814 11.6914 8.43163C9.65973 9.79511 7.99464 11.6374 6.84289 13.7962C5.69115 15.955 5.08812 18.3639 5.08695 20.8107C5.07544 24.706 6.59914 28.449 9.32795 31.2287C9.54668 31.4587 9.66619 31.7655 9.66067 32.0829C9.65515 32.4002 9.52505 32.7027 9.29845 32.925C9.07185 33.1472 8.76694 33.2715 8.44953 33.2709C8.13213 33.2703 7.82769 33.1448 7.60195 32.9217C5.61615 30.8882 4.16079 28.3977 3.36403 25.6694C2.56727 22.9411 2.45355 20.0587 3.03288 17.2761C3.61221 14.4935 4.86682 11.896 6.68623 9.7124C8.50564 7.52877 10.834 5.82598 13.4664 4.75398C16.0987 3.68197 18.9543 3.27363 21.7816 3.56492C24.6089 3.8562 27.3212 4.83817 29.6797 6.42437C32.0382 8.01056 33.9705 10.1523 35.3065 12.661C36.6425 15.1697 37.3411 17.9685 37.3409 20.8107C37.3536 25.3554 35.568 29.7207 32.3739 32.9537C32.2631 33.0679 32.1301 33.1583 31.9831 33.2194C31.836 33.2804 31.6781 33.3108 31.5189 33.3087Z"
        fill="#56566F"></path>
    <path class="Icon"
        d="M20.0047 36.5291C18.6891 36.5307 17.4025 36.1421 16.3077 35.4125C15.2129 34.6829 14.3591 33.645 13.8541 32.4301C13.3492 31.2152 13.2159 29.8779 13.471 28.5872C13.7261 27.2965 14.3582 26.1105 15.2874 25.1791C16.2166 24.2477 17.4011 23.6127 18.6911 23.3545C19.9812 23.0963 21.3188 23.2264 22.5349 23.7284C23.751 24.2304 24.791 25.0818 25.5232 26.1748C26.2555 27.2678 26.6471 28.5535 26.6487 29.8691C26.6498 31.633 25.9506 33.3252 24.7049 34.5739C23.4591 35.8227 21.7686 36.5259 20.0047 36.5291ZM20.0047 25.6431C19.1694 25.6433 18.3528 25.8911 17.6582 26.3553C16.9637 26.8194 16.4223 27.4791 16.1025 28.2508C15.7828 29.0225 15.6989 29.8718 15.8617 30.6911C16.0244 31.5105 16.4264 32.2632 17.0168 32.8542C17.6072 33.4452 18.3596 33.8479 19.1788 34.0114C19.998 34.1749 20.8473 34.0919 21.6193 33.7728C22.3914 33.4538 23.0515 32.913 23.5163 32.2189C23.9811 31.5248 24.2297 30.7085 24.2307 29.8731C24.2297 28.7527 23.7841 27.6785 22.9917 26.8864C22.1994 26.0942 21.1251 25.6489 20.0047 25.6481V25.6431Z"
        fill="#56566F"></path>
    <path class="Icon"
        d="M31.7931 16.0503C32.0369 16.2548 32.1894 16.5479 32.2172 16.8649C32.2449 17.182 32.1456 17.4971 31.941 17.7409L27.6665 22.8351C27.461 23.0799 27.1668 23.2331 26.8484 23.2609C26.53 23.2888 26.2136 23.189 25.9688 22.9836C25.724 22.7782 25.5708 22.4839 25.543 22.1655C25.5151 21.8472 25.6149 21.5308 25.8203 21.2859L30.0948 16.1917C30.1967 16.0704 30.3215 15.9704 30.4622 15.8975C30.6029 15.8246 30.7566 15.7804 30.9145 15.7672C31.0724 15.754 31.2313 15.7723 31.3821 15.8209C31.5329 15.8695 31.6726 15.9474 31.7931 16.0503Z"
        fill="#56566F"></path>
    <defs>
        <clipPath id="clip0_35181_572">
            <rect width="39.999" height="39.999" fill="white"
                transform="translate(0.00488281 0.00390625)"></rect>
        </clipPath>
    </defs>
</svg>