<svg viewBox="0 0 40 41" style="width: 22px; height: 22px;">
    <path
        d="M11.7438 20.6858C11.0688 20.6858 10.3737 20.6478 9.69871 20.5858L4.60472 20.1228C4.44639 20.106 4.29253 20.0602 4.15074 19.9878C3.93878 19.8755 3.76503 19.7026 3.65159 19.4912C3.53816 19.2799 3.49009 19.0395 3.51365 18.8008C3.5286 18.6423 3.57469 18.4884 3.64915 18.3477C3.72362 18.207 3.82509 18.0823 3.94774 17.9809C4.06918 17.8804 4.2092 17.8048 4.35985 17.7584C4.51049 17.7121 4.66876 17.696 4.82567 17.7108L9.92576 18.1738C13.8003 18.5192 17.6926 17.7466 21.1416 15.9477C24.5906 14.1487 27.4516 11.3989 29.3857 8.02382C29.5056 7.82053 29.6824 7.65675 29.8943 7.55288C30.1062 7.449 30.3438 7.40956 30.5779 7.43935C30.812 7.46915 31.0323 7.56696 31.2114 7.7206C31.3905 7.87424 31.5206 8.07702 31.5857 8.30385C31.6288 8.45454 31.6417 8.61228 31.6235 8.76796C31.6053 8.92365 31.5564 9.07416 31.4797 9.21084C29.4932 12.6938 26.621 15.5894 23.1542 17.604C19.6874 19.6186 15.7494 20.6804 11.7397 20.6818L11.7438 20.6858Z"
        fill="#56566F"></path>
    <path class="Icon"
        d="M9.54426 33.2842C9.3341 33.2874 9.12695 33.2341 8.94428 33.1302C8.67154 32.9655 8.47135 32.7037 8.38423 32.3973C8.34264 32.2459 8.33148 32.0877 8.35139 31.932C8.3713 31.7764 8.42197 31.6262 8.50031 31.4901C10.6647 27.7116 13.8677 24.6334 17.7291 22.6205C21.5905 20.6077 25.9481 19.7447 30.2852 20.1342L35.3793 20.5972C35.5381 20.6111 35.6924 20.6567 35.8332 20.7312C35.974 20.8058 36.0985 20.9077 36.1993 21.0312C36.4012 21.2809 36.4981 21.5994 36.4693 21.9192C36.4547 22.0769 36.4092 22.2303 36.3354 22.3704C36.2616 22.5105 36.1608 22.6348 36.039 22.736C35.9172 22.8372 35.7766 22.9134 35.6253 22.9602C35.474 23.0071 35.315 23.0238 35.1573 23.0092L30.0573 22.5462C26.1831 22.204 22.292 22.9779 18.8436 24.7765C15.3952 26.5751 12.5337 29.3233 10.5972 32.6962C10.4892 32.8799 10.3324 33.0301 10.1442 33.1302C9.96334 33.2384 9.75494 33.292 9.54426 33.2842Z"
        fill="#56566F"></path>
    <path class="Icon"
        d="M19.9932 37.5203C15.9873 37.5252 12.1036 36.1406 9.00433 33.6024C5.9051 31.0641 3.7822 27.5295 2.99749 23.6011C2.21278 19.6728 2.81485 15.5938 4.7011 12.0598C6.58736 8.52566 9.64095 5.75528 13.3414 4.22077C17.0418 2.68625 21.1599 2.48262 24.9936 3.64472C28.8273 4.80681 32.1393 7.26261 34.3649 10.5934C36.5905 13.9243 37.5919 17.924 37.1984 21.9106C36.805 25.8972 35.041 29.6239 32.2072 32.4554C30.6042 34.061 28.7002 35.3347 26.6044 36.2038C24.5086 37.0729 22.2621 37.5203 19.9932 37.5203ZM19.9932 5.35333C17.051 5.35314 14.1749 6.22556 11.7286 7.86017C9.28225 9.49478 7.37563 11.8182 6.24993 14.5366C5.12424 17.2549 4.83002 20.246 5.40447 23.1315C5.97893 26.0171 7.3963 28.6674 9.47723 30.7474C11.2072 32.4754 13.3364 33.7502 15.6766 34.4589C18.0167 35.1677 20.4955 35.2884 22.8935 34.8106C25.2915 34.3328 27.5346 33.2712 29.4244 31.7197C31.3142 30.1681 32.7923 28.1745 33.7278 25.9155C34.6633 23.6564 35.0274 21.2015 34.7878 18.7681C34.5482 16.3348 33.7123 13.998 32.3542 11.9648C30.9961 9.93154 29.1576 8.2646 27.0015 7.11139C24.8454 5.95818 22.4383 5.35429 19.9932 5.35333Z"
        fill="#56566F"></path>
    <path class="Icon"
        d="M27.1796 35.8308C26.9107 35.8237 26.6508 35.7324 26.4366 35.5698C26.2233 35.4051 26.0707 35.1744 26.0026 34.9138L24.0636 26.8868C22.8086 21.7679 20.4472 16.9861 17.1457 12.8778L12.0317 6.52974C11.927 6.4086 11.848 6.26748 11.7996 6.11482C11.742 5.9611 11.7222 5.79576 11.7416 5.63277C11.7538 5.47387 11.7999 5.31942 11.8766 5.17976C11.9549 5.036 12.0597 4.90843 12.1856 4.80379C12.3103 4.70167 12.4547 4.62608 12.6097 4.58174C12.7642 4.54295 12.9245 4.53319 13.0826 4.55281C13.2418 4.57025 13.3958 4.61946 13.5356 4.69771C13.6737 4.78007 13.7949 4.88811 13.8926 5.01582L19.0057 11.3737C22.5273 15.7532 25.0467 20.8511 26.3866 26.3088L28.3356 34.3358C28.4077 34.6465 28.355 34.9732 28.189 35.2456C28.023 35.518 27.7569 35.7144 27.4477 35.7928C27.3592 35.8108 27.2696 35.8234 27.1796 35.8308Z"
        fill="#56566F"></path>
    <defs>
        <clipPath id="clip0_35181_6518">
            <rect width="39.999" height="39.999" fill="white" transform="translate(0 0.236328)"></rect>
        </clipPath>
    </defs>
</svg>