<svg viewBox="0 0 40 41" style="width: 18px; height: 18px;">
    <path fill-rule="evenodd" clip-rule="evenodd"
        d="M6.77846 33.8037C7.63612 34.62 8.77817 35.0692 9.96214 35.0557C10.0671 35.0557 10.1985 35.0507 10.3235 35.0347H10.3948C10.4858 35.0297 10.5858 35.0247 10.6858 35.0247L15.848 34.2957C17.106 34.0578 18.2719 33.4703 19.2114 32.6005L32.742 19.0714C33.4913 18.3352 34.1351 17.4988 34.6551 16.5862C35.0944 15.8104 35.3667 14.9514 35.455 14.0642C35.5548 12.9852 35.3739 11.8987 34.9305 10.9101C34.4002 9.75703 33.6585 8.71396 32.743 7.83503C32.0017 7.07584 31.1532 6.42879 30.2253 5.91408C29.2715 5.38219 28.2001 5.09591 27.1081 5.08105C26.0382 5.14365 24.9916 5.41939 24.0299 5.89235C23.0681 6.36532 22.2111 7.02586 21.5083 7.83503L7.97869 21.3654C7.53844 21.8265 7.17385 22.3544 6.89858 22.9294C6.61101 23.4958 6.41188 24.1029 6.30775 24.7295L5.57921 29.8927C5.46049 30.611 5.50837 31.347 5.71984 32.0436C5.92187 32.7086 6.28595 33.3133 6.77846 33.8037ZM24.6109 8.19685C25.303 7.85647 26.0568 7.65809 26.8268 7.6131V7.61798C27.6083 7.62687 28.3748 7.82901 29.0593 8.20613C29.7272 8.57641 30.3381 9.04181 30.8718 9.588C31.5303 10.2207 32.0645 10.9715 32.4461 11.8012C32.7656 12.5126 32.8952 13.2948 32.8221 14.0713C32.7599 14.7098 32.5641 15.3281 32.2479 15.8863C31.8739 16.5432 31.4109 17.1454 30.8718 17.6754L28.5079 19.9892C26.6345 19.3047 24.9294 18.2086 23.516 16.7746C22.174 15.4131 21.1321 13.784 20.4529 11.9959L22.7964 9.59508C23.3021 9.0127 23.9188 8.53724 24.6109 8.19685ZM18.8714 13.6161L9.4963 23.2204C9.17978 23.5523 8.91721 23.9319 8.71894 24.3454C8.5885 24.7528 8.52086 25.1777 8.51874 25.6055C8.45074 26.3875 8.33638 27.6975 8.03338 29.8566C7.94766 30.3734 7.98149 30.9032 8.13299 31.4047C8.26178 31.826 8.26246 31.8266 8.48735 32.0227L8.48847 32.0236L8.59394 32.1176C8.82588 32.3796 9.14202 32.5531 9.48751 32.6086C9.51852 32.6086 10.2665 32.5447 11.2825 32.4396C12.2345 32.3396 13.6225 32.1856 14.8255 31.9956C15.695 31.9189 16.5231 31.5903 17.2084 31.0497L26.8117 21.6496C24.9984 20.9622 23.3474 19.8872 21.9724 18.4928C20.6054 17.1065 19.5498 15.4428 18.8714 13.6161Z"
        fill="#56566F"></path>
    <defs>
        <clipPath id="clip0_35181_2458">
            <rect width="40" height="40" fill="white" transform="translate(0.501953 0.0703125)"></rect>
        </clipPath>
    </defs>
</svg>