<svg viewBox="0 0 40 41" style="width: 14px; height: 14px;">
    <path
        d="M29.3228 38.1477H12.6618C5.31475 38.1477 3.08203 35.915 3.08203 28.5669V11.906C3.08203 4.55889 5.31475 2.32617 12.6618 2.32617H15.1615C18.0772 2.32617 18.994 3.27605 20.1609 4.82586L22.6606 8.15844C23.2105 8.89135 23.2935 8.99134 24.3264 8.99134H29.3258C36.6728 8.99134 38.9056 11.2241 38.9056 18.5711V28.5699C38.9036 35.915 36.6708 38.1477 29.3228 38.1477ZM12.6618 4.82586C6.69758 4.82586 5.58172 5.95872 5.58172 11.906V28.5669C5.58172 34.5151 6.69758 35.648 12.6628 35.648H29.3228C35.287 35.648 36.4039 34.5151 36.4039 28.5669V18.5681C36.4039 12.6199 35.288 11.487 29.3228 11.487H24.3234C23.6021 11.5605 22.8748 11.4276 22.2262 11.1036C21.5775 10.7797 21.0343 10.2781 20.6598 9.65726L18.1601 6.32567C17.2943 5.17582 17.0273 4.82586 15.1605 4.82586H12.6618Z"
        fill="#56566F"></path>
    <path class="Icon"
        d="M34.3211 12.1249C33.9909 12.1213 33.6753 11.988 33.4425 11.7538C33.2096 11.5196 33.0781 11.2033 33.0763 10.8731V8.57339C33.0763 5.94172 31.9554 4.82586 29.3237 4.82586H14.3256C13.9954 4.82272 13.6796 4.68994 13.4464 4.45614C13.2132 4.22234 13.0811 3.90625 13.0788 3.57602C13.0811 3.24526 13.2136 2.92873 13.4475 2.69485C13.6813 2.46096 13.9979 2.32853 14.3286 2.32617H29.3268C33.3552 2.32617 35.576 4.54189 35.576 8.57439V10.8741C35.5739 11.2059 35.4408 11.5234 35.2059 11.7577C34.9709 11.9919 34.6529 12.1239 34.3211 12.1249Z"
        fill="#56566F"></path>
</svg>