<svg viewBox="0 0 40 41" style="width: 22px; height: 22px;">
    <path
        d="M24.8254 37.4927H15.2024C6.49444 37.4927 2.77344 33.7717 2.77344 25.0637V15.4407C2.77344 6.72772 6.49044 3.01172 15.2024 3.01172H24.8254C33.5334 3.01172 37.2544 6.73272 37.2544 15.4407V25.0637C37.2544 33.7717 33.5334 37.4927 24.8254 37.4927ZM15.2024 5.41772C7.80944 5.41772 5.17944 8.04772 5.17944 15.4407V25.0637C5.17944 32.4567 7.80944 35.0867 15.2024 35.0867H24.8254C32.2184 35.0867 34.8494 32.4567 34.8494 25.0637V15.4407C34.8494 8.04772 32.2194 5.41672 24.8254 5.41672L15.2024 5.41772Z"
        fill="#56566F"></path>
    <path class="Icon"
        d="M20.014 27.0662C18.4332 27.0695 16.9003 26.5243 15.6765 25.5237C14.4527 24.523 13.614 23.1289 13.3032 21.5789C12.9924 20.029 13.2289 18.4192 13.9724 17.0242C14.7158 15.6291 15.9201 14.5351 17.38 13.9287C18.8398 13.3224 20.4648 13.2411 21.9779 13.6989C23.4909 14.1567 24.7983 15.1252 25.6772 16.4392C26.556 17.7532 26.9518 19.3313 26.7972 20.9045C26.6425 22.4777 25.9469 23.9486 24.829 25.0662C23.5526 26.3448 21.8207 27.0642 20.014 27.0662ZM20.014 15.8402C18.9201 15.8409 17.8654 16.2484 17.0553 16.9835C16.2451 17.7186 15.7373 18.7288 15.6307 19.8175C15.524 20.9063 15.8261 21.9958 16.4782 22.8742C17.1303 23.7525 18.0857 24.357 19.1588 24.5699C20.2318 24.7829 21.3457 24.5891 22.2838 24.0264C23.2219 23.4636 23.9172 22.572 24.2343 21.525C24.5515 20.4781 24.468 19.3505 23.9999 18.3617C23.5319 17.373 22.7128 16.5936 21.702 16.1752C21.1668 15.9538 20.5932 15.84 20.014 15.8402Z"
        fill="#56566F"></path>
    <path class="Icon"
        d="M28.0329 13.0325C27.8235 13.0302 27.6166 12.9867 27.4239 12.9045C27.2297 12.8231 27.0508 12.7091 26.8949 12.5675C26.7485 12.4122 26.6292 12.2334 26.5419 12.0385C26.3923 11.6467 26.3923 11.2134 26.5419 10.8215C26.6311 10.6278 26.7502 10.4493 26.8949 10.2925C26.9713 10.2237 27.0517 10.1596 27.1359 10.1005C27.2254 10.0399 27.3226 9.99148 27.4249 9.95655C27.5187 9.90691 27.6201 9.87312 27.7249 9.85655C27.9825 9.80584 28.2486 9.81877 28.5001 9.89423C28.7515 9.96969 28.9808 10.1054 29.1679 10.2895C29.313 10.4428 29.4274 10.6223 29.5049 10.8185C29.5894 11.0103 29.6331 11.2175 29.6331 11.427C29.6331 11.6366 29.5894 11.8438 29.5049 12.0355C29.4234 12.2298 29.3095 12.4086 29.1679 12.5645C29.012 12.7061 28.8331 12.8201 28.6389 12.9015C28.4474 12.9843 28.2415 13.0288 28.0329 13.0325Z"
        fill="#56566F"></path>
    <defs>
        <clipPath id="clip0_35181_6598">
            <rect width="39.998" height="39.998" fill="white" transform="translate(0 0.234375)"></rect>
        </clipPath>
    </defs>
</svg>