<svg viewBox="0 0 40 41" style="width: 18px; height: 18px;">
    <path
        d="M16.377 37.3453L25.7638 37.3452C26.3125 37.3452 26.8455 37.3304 27.3479 37.3012C27.8541 37.2719 28.3481 37.2268 28.8161 37.1674C29.2831 37.108 29.7388 37.0324 30.1704 36.9421C30.5992 36.8523 31.0174 36.7451 31.4125 36.6232C31.7971 36.5054 32.1751 36.3672 32.5451 36.2093C32.8962 36.0593 33.2381 35.8887 33.5691 35.6985C33.8877 35.5148 34.1943 35.3111 34.4869 35.0883C34.7733 34.8698 35.0449 34.6324 35.2999 34.3778C35.5544 34.1226 35.7918 33.8509 36.0105 33.5645C36.2328 33.2716 36.4365 32.9649 36.6201 32.6464C36.8104 32.3153 36.981 31.9733 37.131 31.6222C37.2887 31.2521 37.4269 30.874 37.5448 30.4894C37.6659 30.0957 37.7731 29.6776 37.8632 29.2468C37.9526 28.8199 38.0284 28.3645 38.0886 27.8922C38.1475 27.4285 38.1924 26.9345 38.2225 26.4239C38.2515 25.9155 38.2665 25.3825 38.2665 24.8398V15.1607C38.2665 14.618 38.2514 14.0849 38.2225 13.5766C38.1924 13.066 38.1475 12.572 38.0886 12.1083C38.0281 11.6346 37.9524 11.1787 37.8632 10.7535C37.7736 10.3245 37.6665 9.9064 37.5448 9.51073C37.4268 9.12624 37.2887 8.74821 37.131 8.3782C36.981 8.02703 36.8104 7.68502 36.6201 7.35397C36.4366 7.03537 36.233 6.72879 36.0105 6.43608C35.792 6.14941 35.5546 5.87768 35.2999 5.62269C35.0449 5.36793 34.7733 5.1304 34.4869 4.91166C34.1941 4.6892 33.8876 4.48551 33.5691 4.30182C33.2381 4.11165 32.8961 3.94107 32.5451 3.79097C32.1751 3.63312 31.7971 3.49497 31.4125 3.3771C31.0207 3.25585 30.6029 3.14872 30.1704 3.05826C29.7405 2.96833 29.2848 2.89248 28.8161 2.83281C28.346 2.77339 27.8521 2.72828 27.3479 2.69912C26.8413 2.66977 26.3084 2.65479 25.7638 2.65479H16.3774C16.0606 2.66489 15.7602 2.79793 15.5398 3.02571C15.3194 3.2535 15.1963 3.55812 15.1967 3.87508C15.1966 4.03306 15.2277 4.18949 15.2883 4.33543C15.3488 4.48136 15.4374 4.61391 15.5493 4.72551C15.6611 4.8371 15.7938 4.92554 15.9399 4.98576C16.0859 5.04597 16.2424 5.07679 16.4004 5.07642C16.4229 5.07639 16.4453 5.07578 16.4675 5.07459H25.7638C27.6689 5.07459 29.2105 5.24809 30.4766 5.60505C31.7827 5.97372 32.8025 6.53797 33.5939 7.33035C34.3856 8.12202 34.9494 9.14207 35.317 10.4487C35.6736 11.7141 35.8467 13.2555 35.8467 15.1608V24.84C35.8467 26.7451 35.6736 28.2863 35.317 29.5517C34.9496 30.858 34.3856 31.8778 33.5939 32.6704C32.8023 33.463 31.7827 34.027 30.4766 34.3951C29.2105 34.7521 27.6689 34.9256 25.7638 34.9256H16.4741C16.4501 34.9241 16.426 34.9234 16.4018 34.9234C16.0806 34.927 15.7737 35.0573 15.548 35.2859C15.3223 35.5144 15.1959 35.8229 15.1963 36.1441C15.1962 36.4592 15.3199 36.7617 15.5408 36.9864C15.7617 37.2111 16.062 37.34 16.377 37.3453Z"
        fill="#56566F"></path>
    <path class="Icon" fill-rule="evenodd" clip-rule="evenodd"
        d="M22.0463 23.6059C22.0463 26.1485 21.1268 28.0827 19.4631 29.0429C18.7445 29.4591 17.9269 29.674 17.0964 29.6648C15.9603 29.6648 14.716 29.2996 13.4582 28.5692L7.1961 24.9582C4.99167 23.6732 3.77441 21.9147 3.77441 19.9943C3.77441 18.0739 4.99162 16.3156 7.1961 15.0444L13.4581 11.4332C15.6625 10.1618 17.7861 9.98603 19.4632 10.9464C21.1266 11.9067 22.0463 13.8408 22.0463 16.3834V18.7991H30.2274C30.2595 18.7964 30.2921 18.7951 30.325 18.7951C30.6462 18.7987 30.9531 18.929 31.1788 19.1575C31.4045 19.3861 31.531 19.6945 31.5306 20.0158C31.5306 20.1738 31.4995 20.3302 31.439 20.4762C31.3785 20.6221 31.2897 20.7547 31.1779 20.8663C31.0661 20.9779 30.9333 21.0663 30.7873 21.1265C30.6412 21.1867 30.4847 21.2175 30.3268 21.2172C30.2789 21.2172 30.2309 21.2144 30.1834 21.2088H22.0463V23.6059ZM19.6986 16.546C19.6986 14.8408 19.1691 13.5878 18.2001 13.0323C17.8049 12.814 17.3596 12.7026 16.9082 12.7093C16.159 12.7093 15.3064 12.9678 14.4022 13.4973L8.42144 16.9464C6.93609 17.799 6.12212 18.8842 6.12212 19.995C6.12212 21.1059 6.93609 22.1911 8.42144 23.0435L14.4022 26.4926C15.8878 27.3452 17.2311 27.5132 18.2001 26.9577C19.1691 26.4023 19.6986 25.1491 19.6986 23.4441V16.546Z"
        fill="#56566F"></path>
    <defs>
        <clipPath id="clip0_35181_239">
            <rect width="40" height="40" fill="white" transform="translate(0.99707 0.00390625)"></rect>
        </clipPath>
    </defs>
</svg>