<svg viewBox="0 0 40 41" style="width: 22px; height: 22px;">
    <path
        d="M23.6969 9.51262C23.6969 11.0038 22.488 12.2126 20.9969 12.2126C19.5057 12.2126 18.2969 11.0038 18.2969 9.51262C18.2969 8.02145 19.5057 6.81262 20.9969 6.81262C22.488 6.81262 23.6969 8.02145 23.6969 9.51262Z"
        fill="#56566F"></path>
    <path class="Icon"
        d="M23.6969 30.5126C23.6969 32.0038 22.488 33.2126 20.9969 33.2126C19.5057 33.2126 18.2969 32.0038 18.2969 30.5126C18.2969 29.0215 19.5057 27.8126 20.9969 27.8126C22.488 27.8126 23.6969 29.0215 23.6969 30.5126Z"
        fill="#56566F"></path>
    <path class="Icon"
        d="M23.6969 19.5126C23.6969 21.0038 22.488 22.2126 20.9969 22.2126C19.5057 22.2126 18.2969 21.0038 18.2969 19.5126C18.2969 18.0215 19.5057 16.8126 20.9969 16.8126C22.488 16.8126 23.6969 18.0215 23.6969 19.5126Z"
        fill="#56566F"></path>
    <defs>
        <clipPath id="clip0_35181_160">
            <rect width="39.998" height="39.998" fill="white"
                transform="translate(0.996094 0.0118408)"></rect>
        </clipPath>
    </defs>
</svg>