<svg xmlns="http://www.w3.org/2000/svg" class="svg-icon" viewBox="0 0 40 41"
    style="width: 14px; height: 14px;"
    id="ConImageChange">
    <path class="Icon"
        d="M21.9497 36.4715C21.6907 36.4715 21.4307 36.4715 21.1717 36.4565C17.0246 36.2532 13.0913 34.5555 10.0989 31.6772C7.10641 28.7989 5.25707 24.9346 4.89268 20.7985C4.64917 17.2727 5.51811 13.7592 7.37708 10.7534C9.23605 7.74746 11.9913 5.40063 15.2547 4.04354C17.1627 3.24954 18.1697 3.85854 18.5967 4.30254C19.0237 4.72954 19.6187 5.72154 18.8257 7.53754C18.1243 9.14966 17.7706 10.8915 17.7877 12.6495C17.8612 15.9674 19.1935 19.1332 21.5147 21.5051C23.8359 23.8769 26.9722 25.2774 30.2877 25.4225C31.2638 25.464 32.2414 25.3969 33.2027 25.2225C35.2167 24.8565 36.0567 25.6655 36.3767 26.1835C36.6967 26.7015 37.0637 27.8165 35.8427 29.4645C34.2439 31.6457 32.1517 33.4176 29.7371 34.6354C27.3225 35.8532 24.654 36.4824 21.9497 36.4715Z"
        fill="#56566F" id="ContainerImage" />
    <defs>
        <clipPath id="clip0_35181_3315">
            <rect width="39.999" height="39.999" fill="white"
                transform="translate(0.995117 0.236328)" />
        </clipPath>
    </defs>
</svg>