<svg viewBox="0 0 40 41" style="width: 18px; height: 18px;">
    <path fill-rule="evenodd" clip-rule="evenodd"
        d="M17.6771 24.9718C18.6597 25.6284 19.8149 25.9788 20.9966 25.9788C22.5811 25.9783 24.1006 25.3486 25.221 24.2282C26.3414 23.1078 26.9711 21.5883 26.9716 20.0038C26.9716 18.8221 26.6212 17.6669 25.9646 16.6843C25.3081 15.7017 24.3749 14.9359 23.2831 14.4836C22.1914 14.0314 20.99 13.9131 19.8309 14.1436C18.6719 14.3742 17.6073 14.9432 16.7716 15.7788C15.936 16.6145 15.367 17.6791 15.1364 18.8381C14.9059 19.9972 15.0242 21.1986 15.4764 22.2903C15.9287 23.3821 16.6945 24.3153 17.6771 24.9718ZM19.0049 17.023C19.5944 16.6291 20.2876 16.4188 20.9966 16.4188C21.947 16.4201 22.8581 16.7983 23.5301 17.4703C24.2022 18.1423 24.5803 19.0534 24.5816 20.0038C24.5816 20.7129 24.3714 21.406 23.9774 21.9955C23.5835 22.5851 23.0236 23.0446 22.3685 23.3159C21.7135 23.5873 20.9926 23.6583 20.2972 23.5199C19.6018 23.3816 18.963 23.0402 18.4616 22.5388C17.9603 22.0374 17.6188 21.3986 17.4805 20.7032C17.3422 20.0078 17.4132 19.287 17.6845 18.6319C17.9558 17.9768 18.4153 17.4169 19.0049 17.023Z"
        fill="#56566F"></path>
    <path class="Icon" fill-rule="evenodd" clip-rule="evenodd"
        d="M25.1121 36.1129C25.4394 36.194 25.775 36.2366 26.1121 36.2399C26.7885 36.2345 27.4522 36.0562 28.0401 35.7219L30.7961 34.1449C31.282 33.8734 31.7076 33.506 32.0473 33.0651C32.387 32.6242 32.6336 32.1189 32.7721 31.5799C32.9192 31.0457 32.9584 30.4876 32.8873 29.9382C32.8162 29.3888 32.6363 28.859 32.3581 28.3799C32.1384 28.1001 31.9937 27.7687 31.9379 27.4173C31.882 27.0659 31.9169 26.706 32.0391 26.3719C32.2691 26.1003 32.5636 25.8909 32.8956 25.7628C33.2275 25.6347 33.5864 25.5921 33.9391 25.6389C35.0582 25.6368 36.1309 25.1913 36.9222 24.4C37.7135 23.6086 38.159 22.536 38.1611 21.4169V18.6169C38.159 17.4978 37.7135 16.4251 36.9222 15.6338C36.1309 14.8425 35.0582 14.397 33.9391 14.3949C33.5864 14.4416 33.2275 14.399 32.8956 14.2709C32.5636 14.1429 32.2691 13.9334 32.0391 13.6619C31.9209 13.3271 31.8882 12.9681 31.9439 12.6174C31.9996 12.2667 32.142 11.9356 32.3581 11.6539C32.9156 10.6819 33.0643 9.52835 32.7716 8.44677C32.4788 7.3652 31.7687 6.44409 30.7971 5.88588L28.0561 4.30888C27.619 4.05254 27.1355 3.8851 26.6334 3.81618C26.1313 3.74727 25.6205 3.77823 25.1305 3.9073C24.6404 4.03637 24.1806 4.261 23.7776 4.56829C23.3746 4.87557 23.0363 5.25946 22.7821 5.69788L22.6071 5.99788C21.6671 7.62288 20.3761 7.62288 19.4361 5.99788L19.2451 5.67888C18.7289 4.80088 17.8865 4.16251 16.9016 3.9029C15.9167 3.64328 14.8691 3.78346 13.9871 4.29288L11.2301 5.87088C10.7442 6.14284 10.3185 6.5107 9.97902 6.95214C9.63951 7.39357 9.39324 7.89939 9.25514 8.43888C8.96613 9.51843 9.11491 10.6684 9.66914 11.6389C9.8902 11.9188 10.0359 12.2507 10.0922 12.6029C10.1486 12.9552 10.1138 13.3159 9.99114 13.6509C9.76119 13.9224 9.4667 14.1319 9.13472 14.2599C8.80273 14.388 8.44389 14.4306 8.09114 14.3839C6.97205 14.386 5.89939 14.8315 5.10807 15.6228C4.31675 16.4141 3.87126 17.4868 3.86914 18.6059V21.4059C3.87072 22.5248 4.31557 23.5975 5.1063 24.3892C5.89703 25.1809 6.96922 25.627 8.08814 25.6299C8.44089 25.5831 8.79973 25.6257 9.13172 25.7538C9.4637 25.8819 9.75819 26.0913 9.98814 26.3629C10.1064 26.6977 10.1391 27.0567 10.0834 27.4074C10.0277 27.758 9.88531 28.0892 9.66914 28.3709C9.11235 29.3427 8.964 30.4958 9.25668 31.5768C9.54936 32.6579 10.2591 33.5787 11.2301 34.1369L13.9741 35.7099C14.4076 35.9709 14.8897 36.1409 15.391 36.2097C15.8923 36.2784 16.4024 36.2445 16.8901 36.1099C17.3792 35.9821 17.838 35.7585 18.2401 35.4521C18.6421 35.1457 18.9793 34.7626 19.2321 34.3249L19.4071 34.0249C20.3471 32.3999 21.6381 32.3999 22.5781 34.0249L22.7691 34.3439C23.291 35.2153 24.1312 35.8497 25.1121 36.1129ZM23.1583 31.0775C22.5167 30.6431 21.7705 30.3885 20.9971 30.3399V30.3439C20.2251 30.3967 19.4809 30.6535 18.8405 31.0879C18.2002 31.5224 17.6866 32.119 17.3521 32.8169L17.1771 33.1169C16.9752 33.4548 16.6495 33.7005 16.2691 33.8019C16.0846 33.8513 15.8919 33.8628 15.7028 33.8354C15.5137 33.8081 15.3321 33.7426 15.1691 33.6429L12.4131 32.0649C11.9978 31.8168 11.6951 31.417 11.5691 30.9499C11.4416 30.4857 11.5031 29.9899 11.7401 29.5709C12.1783 28.9315 12.4388 28.1871 12.4948 27.414C12.5509 26.6409 12.4005 25.8668 12.0591 25.1709C11.6307 24.5233 11.0368 24.0021 10.3391 23.6614C9.64143 23.3206 8.86528 23.1727 8.09114 23.2329C7.60535 23.2326 7.13952 23.0395 6.79601 22.696C6.4525 22.3525 6.25941 21.8867 6.25914 21.4009V18.6009C6.25808 18.3601 6.30476 18.1215 6.39647 17.8989C6.48819 17.6762 6.62312 17.474 6.79348 17.3038C6.96383 17.1336 7.16623 16.9989 7.38896 16.9074C7.6117 16.816 7.85036 16.7696 8.09114 16.7709C8.86498 16.8329 9.64133 16.6868 10.3397 16.3478C11.0381 16.0088 11.6331 15.4892 12.0631 14.8429C12.4045 14.147 12.5549 13.3728 12.4988 12.5997C12.4428 11.8266 12.1823 11.0823 11.7441 10.4429C11.6252 10.2348 11.5485 10.0052 11.5184 9.76733C11.4884 9.52949 11.5056 9.28805 11.5691 9.05688C11.696 8.58673 12.0037 8.18587 12.4251 7.94188L15.1811 6.34588C15.512 6.15675 15.9037 6.10422 16.2727 6.19947C16.6418 6.29472 16.9591 6.53023 17.1571 6.85588L17.3321 7.17488C17.6646 7.87479 18.1783 8.47295 18.8199 8.90729C19.4616 9.34163 20.2078 9.5963 20.9811 9.64488C21.7545 9.5963 22.5007 9.34163 23.1423 8.90729C23.784 8.47295 24.2977 7.87479 24.6301 7.17488L24.8051 6.87488C24.9023 6.70832 25.0313 6.56256 25.1849 6.44595C25.3384 6.32934 25.5135 6.24416 25.7 6.1953C25.8865 6.14644 26.0809 6.13486 26.2719 6.16121C26.4629 6.18756 26.6468 6.25134 26.8131 6.34888L29.5691 7.92588C29.9835 8.17276 30.286 8.57062 30.4131 9.03588C30.4766 9.26705 30.4939 9.50849 30.4638 9.74633C30.4338 9.98418 30.3571 10.2138 30.2381 10.4219C29.7999 11.0613 29.5395 11.8056 29.4835 12.5787C29.4274 13.3518 29.5778 14.126 29.9191 14.8219C30.3487 15.4675 30.9429 15.9866 31.6404 16.3255C32.3378 16.6645 33.1131 16.811 33.8861 16.7499C34.3719 16.7501 34.8378 16.9432 35.1813 17.2868C35.5248 17.6303 35.7179 18.0961 35.7181 18.5819V21.3819C35.7195 21.6228 35.673 21.8617 35.5814 22.0845C35.4898 22.3074 35.3549 22.5099 35.1845 22.6803C35.0141 22.8506 34.8117 22.9855 34.5888 23.0771C34.3659 23.1687 34.1271 23.2152 33.8861 23.2139C33.1131 23.1528 32.3378 23.2993 31.6404 23.6382C30.9429 23.9772 30.3487 24.4963 29.9191 25.1419C29.5778 25.8378 29.4274 26.6119 29.4835 27.385C29.5395 28.1581 29.7999 28.9025 30.2381 29.5419C30.3571 29.75 30.4338 29.9796 30.4638 30.2174C30.4939 30.4553 30.4766 30.6967 30.4131 30.9279C30.2854 31.3987 29.9761 31.7997 29.5531 32.0429L26.7971 33.6359C26.4644 33.8242 26.0712 33.8745 25.7018 33.7762C25.3324 33.6779 25.0162 33.4386 24.8211 33.1099L24.6461 32.8099C24.3137 32.11 23.8 31.5118 23.1583 31.0775Z"
        fill="#56566F"></path>
    <defs>
        <clipPath id="clip0_35181_51">
            <rect width="39.999" height="39.999" fill="white"
                transform="translate(0.998047 0.00390625)"></rect>
        </clipPath>
    </defs>
</svg>