<svg viewBox="0 0 41 41" style="width: 20px; height: 20px;">
    <path
        d="M13.0734 34.6509H28.8814C34.6564 34.6509 37.9814 31.3299 37.9814 25.5589V14.4909C37.9814 8.71893 34.6564 5.39893 28.8814 5.39893H13.0734C7.30145 5.39893 3.98145 8.71893 3.98145 14.4909C3.98508 14.8043 4.1112 15.1039 4.33284 15.3255C4.55447 15.5472 4.85403 15.6733 5.16745 15.6769C5.48086 15.6733 5.78042 15.5472 6.00205 15.3255C6.22369 15.1039 6.34981 14.8043 6.35345 14.4909C6.35345 9.97093 8.55145 7.77093 13.0734 7.77093H28.8814C33.4014 7.77093 35.6014 9.96893 35.6014 14.4909V25.5589C35.6014 30.0789 33.4034 32.2789 28.8814 32.2789H13.0734C12.7589 32.2789 12.4572 32.4039 12.2348 32.6263C12.0124 32.8487 11.8874 33.1504 11.8874 33.4649C11.8874 33.7795 12.0124 34.0811 12.2348 34.3036C12.4572 34.526 12.7589 34.6509 13.0734 34.6509Z"
        fill="#56566F"></path>
    <path class="Icon"
        d="M17.2825 20.1509C18.3374 20.9767 19.6428 21.4174 20.9825 21.3999C22.3163 21.4191 23.6159 20.978 24.6625 20.1509L29.6115 16.1979C29.7346 16.1026 29.8373 15.9836 29.9137 15.8479C29.9901 15.7122 30.0386 15.5626 30.0563 15.4079C30.074 15.2532 30.0606 15.0966 30.0168 14.9472C29.9731 14.7977 29.8998 14.6586 29.8015 14.5379C29.7061 14.4148 29.5871 14.312 29.4514 14.2356C29.3158 14.1592 29.1662 14.1107 29.0115 14.093C28.8568 14.0753 28.7001 14.0887 28.5507 14.1325C28.4013 14.1763 28.2621 14.2495 28.1415 14.3479L23.1925 18.3009C22.5471 18.771 21.7693 19.0242 20.971 19.0242C20.1726 19.0242 19.3948 18.771 18.7495 18.3009L13.7995 14.3479C13.5532 14.1641 13.245 14.0834 12.9403 14.1229C12.6355 14.1625 12.3582 14.3192 12.167 14.5598C11.9758 14.8004 11.8858 15.106 11.9162 15.4118C11.9465 15.7176 12.0947 15.9995 12.3295 16.1979L17.2825 20.1509Z"
        fill="#56566F"></path>
    <path class="Icon"
        d="M14.6544 28.326H5.16745C4.85403 28.3223 4.55447 28.1962 4.33284 27.9746C4.1112 27.753 3.98508 27.4534 3.98145 27.14C3.98508 26.8266 4.1112 26.527 4.33284 26.3054C4.55447 26.0837 4.85403 25.9576 5.16745 25.954H14.6544C14.9679 25.9576 15.2674 26.0837 15.4891 26.3054C15.7107 26.527 15.8368 26.8266 15.8404 27.14C15.8368 27.4534 15.7107 27.753 15.4891 27.9746C15.2674 28.1962 14.9679 28.3223 14.6544 28.326Z"
        fill="#56566F"></path>
    <path class="Icon"
        d="M5.16745 22.0009H9.91045C10.2239 21.9973 10.5234 21.8712 10.7451 21.6495C10.9667 21.4279 11.0928 21.1283 11.0964 20.8149C11.0928 20.5015 10.9667 20.2019 10.7451 19.9803C10.5234 19.7587 10.2239 19.6325 9.91045 19.6289H5.16745C4.85403 19.6325 4.55447 19.7587 4.33284 19.9803C4.1112 20.2019 3.98508 20.5015 3.98145 20.8149C3.98508 21.1283 4.1112 21.4279 4.33284 21.6495C4.55447 21.8712 4.85403 21.9973 5.16745 22.0009Z"
        fill="#56566F"></path>
    <defs>
        <clipPath id="clip0_35181_1309">
            <rect width="40.001" height="40.001" fill="white"
                transform="translate(0.99707 0.0239258)"></rect>
        </clipPath>
    </defs>
</svg>