<svg viewBox="0 0 40 41" style="width: 22px; height: 22px;">
    <path fill-rule="evenodd" clip-rule="evenodd"
        d="M19.6661 3.96312L20.2323 3.95703L20.3186 3.95709C21.7358 3.96427 23.1367 4.26017 24.4357 4.82674C25.4232 5.25558 26.3291 5.85186 27.1135 6.58927L27.1197 6.59516C28.0617 7.49598 28.8155 8.5747 29.3377 9.76886C29.7846 10.7698 29.9257 12.0253 29.9567 13.2215C29.9846 14.2949 29.9241 15.4187 29.8617 16.4199C29.9586 16.3841 30.0536 16.3426 30.1461 16.2957C30.1621 16.2876 30.1783 16.2799 30.1947 16.2727C30.5315 16.1239 30.8963 16.0489 31.2645 16.0528C31.6115 16.0523 31.9555 16.1142 32.2803 16.2354C32.7313 16.3631 33.1356 16.6204 33.4426 16.9759C33.7644 17.3485 33.9638 17.8111 34.0137 18.3009C34.0177 18.3392 34.0194 18.3778 34.0188 18.4164C34.0147 18.7193 33.9491 19.0183 33.826 19.2951C33.7029 19.5719 33.5248 19.8209 33.3027 20.0269L33.3002 20.0291C32.8261 20.4656 32.2673 20.7998 31.6585 21.0107C31.495 21.0725 31.3113 21.1314 31.143 21.1844L31.1443 21.1839L31.1413 21.1849L31.143 21.1844C30.8291 21.2841 30.5259 21.3824 30.274 21.5078C30.1434 21.5728 30.0563 21.5829 30.0478 21.698C30.0437 21.7533 30.0605 21.7932 30.0867 21.8347C30.1065 21.866 30.1245 21.8983 30.1407 21.9316L30.1588 21.9687C30.1651 21.9818 30.1712 21.995 30.177 22.0083C30.1987 22.0584 30.6628 23.1216 31.618 24.2449C32.5746 25.3697 33.9439 26.4814 35.8054 26.7877C36.1591 26.8852 36.6665 27.137 36.899 27.425C37.1727 27.7641 37.3109 28.1926 37.2871 28.6276L37.2869 28.6305C37.2733 28.8667 37.2172 29.0984 37.1215 29.3147C37.1099 29.3408 37.0972 29.3664 37.0835 29.3914C36.7287 30.0376 36.1517 30.5331 35.4599 30.7862L35.4774 30.7792L35.1011 29.8495L35.4389 30.7938L35.4599 30.7862C34.5702 31.1449 33.6379 31.4033 32.6942 31.5687C32.6368 31.8429 32.5764 32.1272 32.4999 32.396C32.3954 32.7974 32.1575 33.1515 31.825 33.4C31.4939 33.6474 31.0733 33.7747 30.6607 33.7625C30.6507 33.7625 30.6706 33.7628 30.6607 33.7625C30.3486 33.7532 30.0045 33.7156 29.6993 33.6498L29.7023 33.6505L29.6961 33.6491L29.6993 33.6498C29.2059 33.5468 28.7038 33.4933 28.1999 33.4902C27.8614 33.4901 27.5233 33.5166 27.1891 33.5697C26.5112 33.7521 25.8811 34.0804 25.3429 34.5318L25.3452 34.5299L25.3413 34.5332L25.3429 34.5318C23.9096 35.7467 21.8717 36.4472 19.9941 36.5201C19.9299 36.5201 20.0336 36.5216 19.9941 36.5201C19.9691 36.5211 20.0192 36.5211 19.9941 36.5201C18.1157 36.4475 16.075 35.747 14.6422 34.5301C14.1048 34.0779 13.4343 33.7552 12.7564 33.573C12.4233 33.5201 12.1288 33.4862 11.7915 33.4862C11.2887 33.4927 10.7926 33.5505 10.3012 33.6569C10.0024 33.7241 9.67407 33.7648 9.36816 33.7791C8.93973 33.8068 8.53483 33.6832 8.18743 33.4303C7.84389 33.1802 7.67512 32.8521 7.49009 32.4044C7.36893 32.1113 7.28273 31.619 7.28273 31.619C7.28273 31.619 5.41694 31.1418 4.52713 30.7822C3.8337 30.5288 3.25593 30.0315 2.9022 29.3829C2.88824 29.3573 2.8754 29.3311 2.86373 29.3044C2.7702 29.0904 2.7155 28.8615 2.70219 28.6284C2.67685 28.1923 2.81425 27.7624 3.08779 27.4218C3.36077 27.082 3.74992 26.8554 4.18011 26.7856L4.17808 26.7859L4.184 26.785L4.18011 26.7856C5.03384 26.6436 5.84903 26.3267 6.57455 25.8548C7.23299 25.4216 7.82562 24.8959 8.33422 24.2938L8.34289 24.2837C8.9422 23.593 9.44171 22.8218 9.82686 21.9924L9.83773 21.9673C9.85816 21.9201 9.8822 21.8744 9.90964 21.8309C9.93634 21.7885 9.95374 21.7409 9.96069 21.6913C9.96269 21.677 9.96381 21.6626 9.96405 21.6482C9.92595 21.6179 9.85351 21.5672 9.72444 21.5031C9.47235 21.3778 9.16967 21.2798 8.85661 21.1801C8.69256 21.1295 8.50113 21.0699 8.32563 21.0009C7.78446 20.8048 7.28113 20.5169 6.83776 20.1499C6.53245 19.9112 6.29486 19.5965 6.14882 19.2372C5.99987 18.8708 5.95154 18.4713 6.00884 18.0799C6.01328 18.0496 6.0191 18.0195 6.0263 17.9897C6.10538 17.6623 6.25383 17.3557 6.46162 17.0906C6.66332 16.8333 6.91637 16.6209 7.20454 16.4669C7.64628 16.2105 8.14708 16.073 8.65811 16.0679C8.99314 16.0639 9.32502 16.1329 9.63068 16.2702C9.64628 16.2772 9.66169 16.2846 9.6769 16.2924C9.82638 16.3689 9.98265 16.4302 10.1433 16.4755C10.0796 15.4592 10.0165 14.3115 10.0454 13.2165C10.0769 12.0219 10.2185 10.7678 10.6656 9.76952C11.1862 8.5779 11.937 7.50074 12.8747 6.59977L12.8812 6.59364C13.6611 5.85748 14.5632 5.26157 15.5462 4.8328C16.8456 4.2671 18.2463 3.97124 19.6634 3.96314L19.6661 3.96312ZM2.70219 28.6284L2.70226 28.6296L2.70295 28.641L2.70213 28.6273L2.70219 28.6284ZM35.1039 28.7203C35.0625 28.7121 35.1449 28.7291 35.1039 28.7203C35.1179 28.7076 35.0906 28.7338 35.1039 28.7203ZM30.735 31.1822C30.7892 30.8897 30.8693 30.6026 30.9745 30.3243C31.106 29.9764 31.4192 29.7299 31.7883 29.6837C32.7961 29.5577 33.7833 29.3009 34.7248 28.9198C34.7375 28.9146 34.7504 28.9097 34.7633 28.9051C34.8938 28.8584 35.0031 28.8121 35.1039 28.7203C32.8072 28.2291 31.1651 26.8088 30.0899 25.5443C29.0249 24.2919 28.8101 23.9847 28.3368 22.8067C28.2083 22.487 28.0923 22.2809 28.0497 21.9726C28.0038 21.6406 28.0295 21.3027 28.125 20.9814C28.1359 20.9446 28.149 20.9084 28.1641 20.8731C28.4304 20.2498 28.9991 19.9018 29.3799 19.7121C29.782 19.5119 30.2213 19.3724 30.5105 19.2806L30.5368 19.2722L30.5398 19.2713C30.7163 19.2158 30.8542 19.1708 30.9588 19.1308L30.9681 19.1273L30.9804 19.1228L30.9921 19.1187C31.3436 18.9984 31.6663 18.8064 31.9398 18.555L31.9389 18.5558L31.9414 18.5535L31.9398 18.555C31.9624 18.5338 31.988 18.4936 31.9931 18.4468C32.0005 18.3792 31.9631 18.3318 31.9244 18.2869C31.8715 18.2257 31.7712 18.1148 31.6406 18.0586C31.4208 17.9641 31.1076 18.0612 31.0293 18.0961C30.5906 18.2913 29.9168 18.5259 29.3266 18.5766C29.287 18.5799 29.2474 18.581 29.2077 18.5797C28.9279 18.5704 28.6523 18.5091 28.3951 18.3987C28.0056 18.2316 27.7632 17.8378 27.7895 17.4148L27.8286 16.7849L27.8287 16.7825L27.8347 16.6901C27.9054 15.5788 27.9803 14.3864 27.9515 13.2735C27.9221 12.1405 27.7857 11.2114 27.505 10.5842L27.5013 10.5758C27.0859 9.62477 26.4861 8.76554 25.7365 8.04787C25.121 7.46995 24.4105 7.00258 23.636 6.66636L23.6344 6.66566C22.5858 6.2082 21.455 5.96913 20.3109 5.96301H20.3135L20.3084 5.96299L20.3109 5.96301H20.2376L19.6824 5.96897L19.6771 5.96901C18.5311 5.97526 17.3982 6.21439 16.3474 6.67177C15.5779 7.00743 14.8721 7.47347 14.2612 8.04936C13.5143 8.7678 12.9165 9.62659 12.502 10.5765L12.4976 10.5865C12.2174 11.2102 12.0805 12.1372 12.0506 13.2694C12.0213 14.3811 12.0957 15.5731 12.1664 16.6831L12.1665 16.6843L12.2116 17.4075C12.2383 17.8341 11.9916 18.2308 11.5971 18.3955C11.2983 18.5202 10.9767 18.5807 10.6531 18.5729L10.6335 18.5723C9.99355 18.5444 9.36693 18.3814 8.79476 18.0941C8.75874 18.0801 8.7203 18.0731 8.68155 18.0736L8.67816 18.0737C8.51111 18.0754 8.34747 18.1211 8.20376 18.2063C8.18737 18.216 8.1707 18.2253 8.15378 18.234C8.10967 18.2569 8.07099 18.289 8.04035 18.3281C8.02017 18.3538 8.00379 18.3822 7.99163 18.4124C7.99284 18.4361 7.99803 18.4596 8.00707 18.4819C8.02141 18.5171 8.04491 18.5479 8.07514 18.5711C8.08632 18.5796 8.09732 18.5884 8.10813 18.5974C8.3787 18.8232 8.6869 18.9996 9.01861 19.1185C9.02965 19.1224 9.04061 19.1266 9.0515 19.1309C9.1468 19.1689 9.27149 19.2089 9.4523 19.2647L9.46081 19.2674L9.49097 19.277C9.77916 19.3686 10.2167 19.5078 10.6172 19.7068C10.9978 19.896 11.5684 20.2439 11.8351 20.8681C11.8508 20.9049 11.8643 20.9427 11.8756 20.9812C11.9691 21.3018 11.9935 21.6387 11.9472 21.9694C11.9048 22.2723 11.804 22.5639 11.6505 22.8279C11.1868 23.8288 10.5848 24.7597 9.86228 25.5933C9.22976 26.3411 8.49299 26.9941 7.67459 27.5322L7.6707 27.5348C6.81779 28.0899 5.87088 28.4826 4.8777 28.6944C4.97736 28.7845 5.09444 28.8549 5.22303 28.9008C5.23651 28.9056 5.24988 28.9107 5.26313 28.9161C6.2038 29.2979 7.19048 29.5545 8.19793 29.6796C8.56566 29.7252 8.87827 29.9699 9.0109 30.3159C9.11833 30.5962 9.19962 30.8858 9.25374 31.181C9.29997 31.3938 9.34123 31.5825 9.39359 31.7686C9.55032 31.7566 9.70601 31.7331 9.85944 31.6985L9.86744 31.6967C10.4938 31.5607 11.1322 31.4882 11.7731 31.4804L11.7845 31.4803C12.2494 31.4799 12.7136 31.518 13.1722 31.5941C13.2016 31.599 13.2307 31.6052 13.2595 31.6126C14.2444 31.8678 15.1596 32.3405 15.9378 32.9959L15.9412 32.9987C17.0227 33.9179 18.5696 34.4506 19.9869 34.5135V34.5089C20.0377 34.5089 19.9537 34.5103 19.9869 34.5116V34.5135C21.4092 34.4533 22.9616 33.9213 24.0477 33.0001L24.0515 32.9969C24.83 32.3433 25.7445 31.8718 26.7284 31.6167C26.7573 31.6092 26.7865 31.603 26.8159 31.5981C27.2745 31.522 27.7387 31.4839 28.2036 31.4843L28.2086 31.4843C28.8487 31.488 29.4868 31.556 30.1133 31.6871L30.1195 31.6884C30.2767 31.7224 30.4362 31.7441 30.5967 31.7536C30.6484 31.5648 30.6945 31.3744 30.735 31.1822Z"
        fill="#56566F"></path>
    <defs>
        <clipPath id="clip0_35181_7095">
            <rect width="40" height="40" fill="white" transform="translate(0 0.238281)"></rect>
        </clipPath>
    </defs>
</svg>