<svg xmlns="http://www.w3.org/2000/svg" class="svg-icon" viewBox="0 0 40 41"
    style="width: 14px; height: 14px;"
    id="ConImageChange">
    <path class="Icon"
        d="M20.4004 37.3872C20.5902 37.4601 20.7925 37.4943 20.9957 37.4879C21.4191 37.4724 21.8199 37.293 22.1135 36.9875C22.4072 36.6821 22.5708 36.2746 22.5697 35.8509C22.5697 35.4335 22.4039 35.0331 22.1087 34.7379C21.8135 34.4428 21.4131 34.2769 20.9957 34.2769C20.5782 34.2769 20.1779 34.4428 19.8827 34.7379C19.5875 35.0331 19.4217 35.4335 19.4217 35.8509V35.9769C19.4236 36.1802 19.4661 36.381 19.5466 36.5676C19.6272 36.7542 19.7442 36.9228 19.8908 37.0635C20.0375 37.2043 20.2107 37.3143 20.4004 37.3872Z"
        fill="#56566F" id="ContainerImage" />
    <path class="Icon"
        d="M31.1167 32.5929C31.4162 32.884 31.817 33.0475 32.2347 33.0489C32.4394 33.0495 32.6422 33.0095 32.8313 32.9312C33.0205 32.853 33.1922 32.738 33.3367 32.5929C33.4827 32.4473 33.5985 32.2743 33.6775 32.0838C33.7565 31.8933 33.7972 31.6891 33.7972 31.4829C33.7972 31.2767 33.7565 31.0725 33.6775 30.8821C33.5985 30.6916 33.4827 30.5186 33.3367 30.3729L33.1367 30.1729C32.8423 29.8785 32.443 29.7131 32.0267 29.7131C31.6104 29.7131 31.2111 29.8785 30.9167 30.1729C30.6223 30.4673 30.4569 30.8666 30.4569 31.2829C30.4569 31.6993 30.6223 32.0985 30.9167 32.3929L31.1167 32.5929Z"
        fill="#56566F" />
    <path class="Icon"
        d="M8.63769 32.5929C8.93721 32.884 9.33802 33.0475 9.75569 33.0489C10.1686 33.0471 10.5643 32.8834 10.8577 32.5929L11.0577 32.3929C11.3521 32.0985 11.5175 31.6993 11.5175 31.2829C11.5175 30.8666 11.3521 30.4673 11.0577 30.1729C10.7633 29.8785 10.364 29.7131 9.94769 29.7131C9.53136 29.7131 9.13208 29.8785 8.83769 30.1729L8.63769 30.3729C8.49171 30.5186 8.37589 30.6916 8.29687 30.8821C8.21785 31.0725 8.17717 31.2767 8.17717 31.4829C8.17717 31.6891 8.21785 31.8933 8.29687 32.0838C8.37589 32.2743 8.49171 32.4473 8.63769 32.5929Z"
        fill="#56566F" />
    <path class="Icon"
        d="M36.6107 21.8099H36.7367C36.9399 21.808 37.1407 21.7655 37.3273 21.685C37.5139 21.6044 37.6825 21.4874 37.8233 21.3408C37.964 21.1942 38.0741 21.0209 38.147 20.8312C38.2198 20.6414 38.2541 20.4391 38.2477 20.2359C38.2321 19.8125 38.0527 19.4117 37.7473 19.1181C37.4419 18.8244 37.0344 18.6609 36.6107 18.6619C36.1932 18.6619 35.7929 18.8278 35.4977 19.1229C35.2025 19.4181 35.0367 19.8185 35.0367 20.2359C35.0367 20.6534 35.2025 21.0537 35.4977 21.3489C35.7929 21.6441 36.1932 21.8099 36.6107 21.8099Z"
        fill="#56566F" />
    <path class="Icon"
        d="M5.25369 21.8099H5.37969C5.58292 21.808 5.78373 21.7655 5.97033 21.685C6.15692 21.6044 6.32554 21.4874 6.4663 21.3408C6.60705 21.1942 6.71709 21.0209 6.78997 20.8312C6.86285 20.6414 6.89709 20.4391 6.89069 20.2359C6.87513 19.8125 6.69572 19.4117 6.39031 19.1181C6.0849 18.8244 5.67737 18.6609 5.25369 18.6619C4.83624 18.6619 4.43588 18.8278 4.1407 19.1229C3.84552 19.4181 3.67969 19.8185 3.67969 20.2359C3.67969 20.6534 3.84552 21.0537 4.1407 21.3489C4.43588 21.6441 4.83624 21.8099 5.25369 21.8099Z"
        fill="#56566F" />
    <path class="Icon"
        d="M30.9127 10.3199C31.2121 10.6104 31.6125 10.7735 32.0297 10.7749C32.2345 10.7758 32.4374 10.736 32.6268 10.6579C32.8161 10.5798 32.988 10.4649 33.1327 10.3199L33.3327 10.1199C33.6271 9.82553 33.7925 9.42625 33.7925 9.00992C33.7925 8.59359 33.6271 8.19431 33.3327 7.89992C33.0383 7.60553 32.639 7.44015 32.2227 7.44015C31.8064 7.44015 31.4071 7.60553 31.1127 7.89992L30.9127 8.09992C30.7667 8.24557 30.6509 8.41858 30.5719 8.60905C30.4928 8.79952 30.4522 9.00371 30.4522 9.20992C30.4522 9.41613 30.4928 9.62032 30.5719 9.81079C30.6509 10.0013 30.7667 10.1743 30.9127 10.3199Z"
        fill="#56566F" />
    <path class="Icon"
        d="M8.84269 10.3199C9.14212 10.6104 9.5425 10.7735 9.95969 10.7749C10.1659 10.7743 10.3709 10.7318 10.5603 10.6502C10.7497 10.5686 10.9206 10.4494 11.0627 10.2999C11.2087 10.1543 11.3245 9.98126 11.4035 9.79079C11.4825 9.60032 11.5232 9.39613 11.5232 9.18992C11.5232 8.98371 11.4825 8.77952 11.4035 8.58905C11.3245 8.39858 11.2087 8.22557 11.0627 8.07992L10.8627 7.87992C10.7169 7.73415 10.5439 7.61853 10.3534 7.53964C10.163 7.46075 9.95883 7.42015 9.75269 7.42015C9.54654 7.42015 9.34241 7.46075 9.15196 7.53964C8.96151 7.61853 8.78845 7.73415 8.64269 7.87992C8.49692 8.02569 8.38129 8.19874 8.3024 8.38919C8.22351 8.57965 8.18291 8.78378 8.18291 8.98992C8.18291 9.19607 8.22351 9.4002 8.3024 9.59065C8.38129 9.7811 8.49692 9.95415 8.64269 10.0999L8.84269 10.3199Z"
        fill="#56566F" />
    <path class="Icon"
        d="M20.4001 6.0305C20.59 6.10332 20.7925 6.13746 20.9957 6.13092C21.4189 6.11511 21.8195 5.9356 22.1129 5.63021C22.4064 5.32483 22.5698 4.91744 22.5687 4.49392C22.5687 4.07647 22.4029 3.67612 22.1077 3.38094C21.8125 3.08575 21.4121 2.91992 20.9947 2.91992C20.5772 2.91992 20.1769 3.08575 19.8817 3.38094C19.5865 3.67612 19.4207 4.07647 19.4207 4.49392V4.61992C19.4226 4.82324 19.4651 5.02414 19.5457 5.2108C19.6263 5.39746 19.7435 5.56613 19.8902 5.7069C20.0369 5.84766 20.2103 5.95768 20.4001 6.0305Z"
        fill="#56566F" />
    <path class="Icon"
        d="M14.6549 29.7248C16.5319 30.9788 18.7387 31.648 20.996 31.6478C24.022 31.6455 26.9233 30.4424 29.0629 28.3027C31.2026 26.1631 32.4057 23.2618 32.408 20.2358C32.4082 17.9785 31.739 15.7718 30.485 13.8947C29.231 12.0177 27.4486 10.5547 25.3631 9.6908C23.2776 8.82685 20.9827 8.60075 18.7687 9.04109C16.5547 9.48143 14.521 10.5684 12.9248 12.1646C11.3286 13.7608 10.2416 15.7945 9.80129 18.0085C9.36094 20.2225 9.58704 22.5174 10.451 24.6029C11.3149 26.6884 12.7779 28.4708 14.6549 29.7248Z"
        fill="#56566F" />
    <defs>
        <clipPath id="clip0_35181_3257">
            <rect width="39.999" height="39.999" fill="white"
                transform="translate(0.996094 0.236328)" />
        </clipPath>
    </defs>
</svg>