<svg viewBox="0 0 40 41" style="width: 18px; height: 18px;">
    <path fill-rule="evenodd" clip-rule="evenodd"
        d="M6.78306 10.1666C6.73843 10.3164 6.72456 10.4742 6.74114 10.6296C6.76861 10.9258 6.90528 11.201 7.1251 11.4014C7.34492 11.6017 7.63183 11.712 7.92924 11.712C7.96729 11.712 8.00968 11.7099 11.2849 11.3899C19.5836 10.5489 24.5642 10.8662 32.9546 11.7072H33.0804C33.3761 11.708 33.661 11.5975 33.8788 11.3976C34.0966 11.1976 34.2316 10.9234 34.2561 10.6287C34.2864 10.3154 34.1914 10.0024 33.9922 9.7588C33.793 9.51517 33.5058 9.36068 33.1928 9.32815C31.0279 9.11546 29.0799 8.93595 27.2409 8.79936C27.24 8.78903 27.2382 8.77849 27.2364 8.76791C27.2339 8.75354 27.2313 8.7391 27.2313 8.72505L26.8826 6.66326L26.8821 6.66003C26.6441 5.20048 26.2875 3.01416 22.5828 3.01416H18.4259C14.733 3.01416 14.3819 5.12295 14.1283 6.64672L14.1279 6.64897L13.7792 8.726C13.7775 8.7398 13.775 8.75348 13.7716 8.76697C12.8994 8.83331 11.9913 8.91427 11.04 9.01183L7.80442 9.3291C7.64883 9.34372 7.4974 9.38901 7.35948 9.46249C7.22156 9.53597 7.10017 9.63591 7.00124 9.75689C6.90232 9.87787 6.82768 10.0168 6.78306 10.1666ZM24.556 7.06056L24.8228 8.64216C23.251 8.55728 21.7273 8.51448 20.179 8.51448C18.8941 8.51448 17.5871 8.54337 16.2212 8.61167L16.4975 7.04532L16.4996 7.03248C16.7338 5.63222 16.7709 5.41037 18.4487 5.41037H22.6047C24.2857 5.41037 24.3326 5.68102 24.556 7.06056Z"
        fill="#56566F"></path>
    <path class="Icon" fill-rule="evenodd" clip-rule="evenodd"
        d="M9.48614 31.5862C9.66175 34.0604 9.88232 37.1227 15.4181 37.1227H25.6031C31.1408 37.1227 31.3614 34.0604 31.537 31.5862L32.5679 15.6102C32.5783 15.4539 32.5581 15.2965 32.5079 15.1481C32.4576 14.9998 32.3786 14.8629 32.2754 14.7451C32.1722 14.6273 32.0471 14.5314 31.9067 14.4621C31.7662 14.3929 31.6132 14.3513 31.4569 14.3411C27.7979 13.696 24.0931 13.3412 20.3782 13.2797C16.7503 13.3321 13.1331 13.687 9.56427 14.3411C9.24956 14.3642 8.95664 14.5106 8.7487 14.748C8.54075 14.9853 8.43481 15.2952 8.45334 15.6102L9.48614 31.5862ZM11.8649 31.4357L11.8642 31.4271L10.9143 16.7192C14.0267 16.0575 17.1966 15.7024 20.3782 15.6588C23.6465 15.7133 26.9026 16.0682 30.1059 16.7192L29.157 31.4271C28.9979 33.8389 28.9359 34.7437 25.6031 34.7437H15.4181C12.1058 34.7437 12.04 33.84 11.8649 31.4357Z"
        fill="#56566F"></path>
    <defs>
        <clipPath id="clip0_35181_2440">
            <rect width="40" height="40" fill="white" transform="translate(0.50293 0.0703125)"></rect>
        </clipPath>
    </defs>
</svg>