<svg viewBox="0 0 40 41" style="width: 20px; height: 20px;">
    <path
        d="M21.2561 37.2959H20.8196C18.3933 37.2991 16.0251 36.5508 14.0413 35.1538C12.0522 33.7633 10.5426 31.7905 9.72096 29.5069C9.38034 28.5178 9.18368 27.485 9.13697 26.44V26.4239C9.04399 25.9929 9.04439 25.547 9.13697 25.116C9.22956 24.685 9.41233 24.2786 9.67408 23.9239C10.152 23.3377 10.8282 22.9464 11.5745 22.8238L13.2102 22.7359H28.8782L30.512 22.8238C31.2586 22.9456 31.935 23.3371 32.4124 23.9239C32.6745 24.2785 32.8582 24.6848 32.9514 25.1158C33.0447 25.5468 33.0454 25.9926 32.9534 26.4239V26.4378C32.9059 27.4827 32.7092 28.5156 32.3694 29.5049C31.5473 31.7886 30.0383 33.7618 28.0501 35.1538C26.0613 36.553 23.6878 37.3015 21.2561 37.2959V37.2959ZM14.9934 25.0069L13.7317 25.0669C13.1716 25.1445 12.6552 25.4121 12.2688 25.825C12.0701 26.0597 11.9286 26.3377 11.8567 26.6368C11.7848 26.9358 11.7845 27.2475 11.8547 27.5469V27.555C11.8904 28.2782 12.0415 28.9909 12.304 29.6658C13.047 31.3016 14.2557 32.6823 15.7786 33.6355C17.3014 34.5888 19.0714 35.0724 20.8674 35.0259H21.2073C23.0035 35.0733 24.7741 34.5901 26.2971 33.6368C27.8202 32.6834 29.0285 31.3021 29.7708 29.6658C30.0322 28.9906 30.1831 28.2781 30.219 27.555V27.545C30.2891 27.2456 30.2885 26.9341 30.2161 26.6353C30.1436 26.3365 30.0014 26.059 29.802 25.825C29.4167 25.4107 28.8998 25.1428 28.3391 25.0669L27.0774 25.0069H14.9934ZM20.9426 17.3799C19.9804 17.3824 19.0268 17.1938 18.1379 16.8252C17.2491 16.4567 16.443 15.9156 15.7649 15.2329C15.0825 14.5547 14.5405 13.7477 14.1721 12.8589C13.8038 11.9701 13.6158 11.0171 13.6184 10.055C13.6159 9.0924 13.8038 8.13885 14.1721 7.24955C14.5405 6.36024 15.0825 5.55268 15.7649 4.87382C16.443 4.19127 17.2491 3.65024 18.1379 3.28202C19.0268 2.9138 19.9805 2.72571 20.9426 2.7288C21.9053 2.72573 22.8588 2.91382 23.7483 3.28202C24.6378 3.65022 25.4454 4.19123 26.1243 4.87382C26.8062 5.55296 27.3469 6.36054 27.7151 7.24979C28.0833 8.13905 28.2721 9.09252 28.2698 10.055C28.2722 11.017 28.0833 11.9699 27.7151 12.8587C27.3469 13.7475 26.8062 14.5544 26.1243 15.2329C25.4453 15.9156 24.6378 16.4567 23.7483 16.8252C22.8588 17.1938 21.9054 17.3823 20.9426 17.3799ZM20.9426 4.97977C19.599 4.98163 18.3105 5.51631 17.3606 6.46659C16.4107 7.41687 15.8766 8.70524 15.8753 10.0489C15.8768 11.3924 16.4117 12.6804 17.3616 13.6307C18.3114 14.5809 19.5991 15.1158 20.9426 15.118C22.2866 15.1164 23.5752 14.5816 24.5256 13.6314C25.4761 12.6811 26.0101 11.3929 26.012 10.0489C26.0088 8.70575 25.474 7.41869 24.5237 6.46952C23.5734 5.52035 22.2858 4.98648 20.9426 4.9849V4.97977Z"
        fill="#56566F"></path>
    <defs>
        <clipPath id="clip0_35181_317">
            <rect width="40" height="40" fill="white" transform="translate(0.99707 0.0137939)"></rect>
        </clipPath>
    </defs>
</svg>